<?xml version="1.0" encoding="UTF-8"?> <svg xmlns="http://www.w3.org/2000/svg" id="Calque_5" data-name="Calque 5" viewBox="0 0 2121.3 477.52"><defs><style> .cls-1 { stroke-width: 0px; } </style></defs><path class="cls-1" d="M2073.94,73.43h-10.34c5.12,4.87,8.34,10.11,11.04,15.68,3.39,5,2.77,8.5-3.8,8.93-5.19.34-10.42.07-16.13-1.72,2.91-1.36,5.84-2.71,8.75-4.07,1.07-10.99-9.09-7.81-14.05-10.93-3.59-2.26-6.91.59-8.82,4.22-1.82,3.45-2.39,7.43-8.06,7.65-2.65.11-4.74,2.54-5.63,5.5l34.37,90.76c.37-.26.68-.45.97-.44,5.8.23,11.58.64,17.87,1.02-5.02,6.42-7.81,7.11-17.59,2.73l2.12,5.59h49.69v-97.44c-2.7,4.96-5.91,9.34-7.18,14.77-1.23,5.23-8.19,4.16-11.65,7.76-1.5,1.55-4.21,0-4.15-3.23.04-2.63-3.93-4.73-.14-8.06,3.37-2.96,7.43-3.32,11.06-5.08,7.54-3.67,8-7.78.49-12.29-4.94-2.97-5.86-6.67-5.03-11.36.36-2.02,1.41-4.79,4.05-5.07,3.18-.34,3.2,2.41,3.56,4.66.89,5.59,5.11,5.89,8.99,6.68v-11.03l-1.99-5.25h-16.86c-7.02,3.05-14.14,2.91-21.53,0ZM2086.66,180.98c3.79-7,7.68-6.98,12.98-8.36-2.62,6.7-6.34,7.52-12.98,8.36ZM2059.52,155.04c1.54,1.62,3.49,2.95,3.76,5.5-1.8,2.14-4.4,4.29-6.82,3.89-3.83-.62-5.53-4.29-6.51-7.96-.51-1.91-.23-4.11,1.46-4.84,3.55-1.53,5.88,1.04,8.11,3.41ZM2041.89,101.12c-1.11-.03-2.71-.91-3.19-1.88-.63-1.29.57-2.46,1.9-2.83,1.53-.43,2.55.41,3.1,1.85.21,1.5-.38,2.9-1.81,2.86Z"></path><path class="cls-1" d="M2063.58,48.48c3.04-1.52,6.03-3.16,8.92-4.48,7.14-3.26-1.19-5.61-3.48-8-2.07-1.12-4.8-1.86-2.92-5.24,3.72-3.71,8.21-.87,9.5,1.31,4.7,7.93,11.88,12.32,19.26,16.41h8.03l-18.37-48.48h-95.01l18.36,48.48h55.71Z"></path><path class="cls-1" d="M2072.62,301.36c-1.6-8.21,7.1-10.67,7.51-16.84-1.55-1.76-3.11-3.53-4.73-5.37h-10.78l-37.61,99.32c2.43-.78,4.79-2.1,8.06-4.35,1.36,4.42,1.64,8.43-1.62,9.68-3.1,1.2-6.23,1.96-9.37,2.41l-2.6,6.87c.11.09.22.17.32.26,1.51,1.3,2.2,2.73,1.6,4.38h90.91v-118.56h-17.01c-3,4.62-5.71,9.47-8.64,14.15-4.77,3.25-9.48,6.63-16.04,8.06ZM2107.28,382.03c-5.3.2-11.66,3.09-13.55-5.44,5.48-.66,9.61,2.15,13.55,5.44ZM2066.2,364.8c2.14,1.95,3.3,4.45,2.11,7.44-.71,1.79-2.14,3.14-3.98,3.25-2.88.16-3.41-2.5-4.45-4.5-1.04-2.01-2.22-3.94-3.88-6.85,4.51-1.86,7.59-1.7,10.2.67ZM2082.59,316.43c-4.88,2.54-9.84,2.63-16.36.53,6.36-2.82,11.36-1.49,16.36-.53Z"></path><path class="cls-1" d="M2014.74,441.32c2.13.24,2.11,2.75,2.58,4.45.55,1.98-.46,4.71-1.69,4.79-7.83.47-13.32,5.83-19.57,9.65l-6.55,17.31h95.01l20.78-54.86h-95.02l-7.45,19.69c4.12.48,7.97-1.48,11.91-1.03ZM2059.81,469.86q-10.06,5.27-22.22,3.39c8.22-2.68,14.23-7.59,22.22-3.39ZM2032.39,451.12c-.66,1.05-1.91,2.22-3.04,2.37-1.49.22-2.35-1.37-1.92-2.71.57-1.82,2.21-2.8,4.05-3.25,1.25.95,1.66,2.38.91,3.58Z"></path><path class="cls-1" d="M1911.44,154.32l1.93,5.1c1.88-2.04,4.1-3.68,6.62-4.83-2.8.18-5.65.06-8.55-.27Z"></path><path class="cls-1" d="M1907.6,111.16c-.08-1.96,2.45-4.62,4.86-4.06,6.91,1.6,11.91-4.41,18.36-4.16,5.05-2.52,4.36,6.65,9.2,4.5,4.27-2.55,6.84-4.7,7.98-6.9-1.94,1.74-4.61,2.67-8.11,2.45-1.28-.5-2.32-1.32-3.11-2.45-.57-1.83,1.18-5.86-2.22-4.99-5.54,1.41-9.27-3.47-14.29-2.87-6.5,9.18-7.38,9.32-16.39,2.68-1.34.91-2.57.77-3.68-.42q-7.19-7.77-.39-19.77c-.57-.7-1.11-1.21-1.65-1.72h-8.76c-1.07,1.19-2.08,2.71-3.05,4.43-1.37,1.04-2.45,1.52-3.3,1.52l9.07,23.95c.08.02.17.03.25.04.99.64,1.09,1.27.47,1.87l6.57,17.35c4.27-2.56,8.42-5.05,8.18-11.43Z"></path><path class="cls-1" d="M1931.19,152.43c4.57.09,9.27,1.25,13.64,3.51-1.29-4.27-1.16-8.57,2.61-12.94.02-.28-.07.07-.1.03-5.14,4.41-10.54,7.51-16.15,9.4Z"></path><path class="cls-1" d="M1950.1,187.08c.05-.05.1-.07.15-.12-7.49-1.33-13.79-5.24-20.52-9.33,3.34-.96,6.1-1.76,10.44-3.02-7.89-2.95-14.06-5.27-20.23-7.58-1.23.04-2.46.02-3.69-.02l3.64,9.62c.35.19.65.32,1.02.52-.22.15-.45.25-.67.39l7.88,20.8h18.8c1.57-3.7,2.72-7.45,3.54-11.34l-.36.06Z"></path><path class="cls-1" d="M1972.75,137.34c-3.8,1.45-8.84,4.78-7.51,9.91,1.28,4.93,6.11,6.57,11.2,5.35,7.63-1.82,11.95.77,12.33,9-4.41,10.82-12.36,11.9-21.89,8.63-.02,2.11-.3,4.2-1.56,6.15-.89,1.7-2.13,3.11-3.48,4.43-2.12,1.34-3.91,3.18-5.99,4.56,5,2.62,6.46,7.74,8.49,12.46.13.18.29.36.46.53h58.32l-13.69-36.14c-1.08-.28-2.17-.72-3.24-1.54.29-1.5.81-2.47,1.45-3.19l-10.12-26.71c-11.03-.53-17.7,3.88-24.78,6.56ZM1991.36,173.68c.56,3.12,1.11,6.25,1.65,9.29-5.53,3.64-11.68,4.48-18.08,4.11,2.75-3.9,4.67-8.31,8.2-11.78,2.65-2.59,5.14-2.84,8.23-1.62Z"></path><path class="cls-1" d="M1880.8,73.43l.32.85c.11-.3.24-.58.4-.85h-.72Z"></path><path class="cls-1" d="M1972.89,116.33c5.8,1.73,7.37,1.68,18.88-.79l-4.14-10.92c-4.41,4.25-10.13,7.17-14.74,11.71Z"></path><path class="cls-1" d="M1997.43,130.5l-5.01-13.22c-.25,4.46-1.75,9.35,5.01,13.22Z"></path><polygon class="cls-1" points="1966.37 48.48 1948.01 0 1852.99 0 1871.36 48.48 1966.37 48.48"></polygon><path class="cls-1" d="M1978.23,397.71l.35-.92c-.68.36-1.36.67-2.06.92h1.71Z"></path><path class="cls-1" d="M1928.12,279.15l-10.98,29c.67,10.38-1.86,19.82-10.5,27.73l-23.41,61.83h74.18c.02-.29.04-.57.13-.89,1.09-3.7-.09-6.02-2.06-8.63-.4-.53-.36-1.83.02-2.43.39-.62,1.98-1.3,2.11-1.15,5.51,6.54,4.95-7.43,10.52-2.98,4.26,3.4,8.51,6.65,12.11,10.82l42.91-113.3h-95.01ZM1977.61,342.41c4.05-3.89,5.94-8.54,12.62-11.3-2.35,7.18-2.11,14-12.62,11.3Z"></path><path class="cls-1" d="M1899.35,434.86c4.41.01,6.79,1.11,10.83,8-15.73-5.19-26.72,1.95-37.86,5.94-3.37-4-.04-9.04-3.71-12.5l-10.86,28.67c.24-.14.46-.3.55-.51,3.89-9.28,10.3-11.23,19.88-5.9-2.67,6.3-10.19,7.49-12.48,14.39-1.13,3.39-7.57,1.69-10.58-1.03l-2.12,5.6h95.02l20.77-54.86h-95.01l-5.05,13.34c10.45,4,20.4-1.17,30.64-1.14ZM1958.02,442.64c.21,4.01-10.73,14.11-15.22,13.6-2.61-.3-3.7-2.2-1.84-4.85,2.82-4,4.56-9.09,9.35-11.19,3.26-1.43-.62-7.26,3.87-6.57,4.8.74,3.64,5.48,3.84,9.01ZM1936.54,429.3c-.02-4.18,3.29-3.96,5.9-2.63,3.72,1.89,3.5,5.48,1.58,8.28-3.1,4.5-8.12,4.79-12.88,5.79-1.25-6.22,5.43-6.72,5.41-11.45Z"></path><polygon class="cls-1" points="1829.86 48.48 1811.49 0 1716.48 0 1734.84 48.48 1829.86 48.48"></polygon><path class="cls-1" d="M1811.34,77.54c4.39,2.4,8.62,7.5,14.32,1.05,1.77-2,6.1-1.42,9.08.44,1.75,1.09,2.35,2.87,2.21,4.76-.16,2.19-1.63,3.23-3.74,2.62-6.23-1.8-7.05,1.54-6.52,6.61.41,3.87-.99,7.27-3.48,10.21-.26,2.32,2.06,6.13-1.62,6.46-2.84.25-3.12-3.76-3.83-6.3-7.24-1.64-12.78,6.44-20.48,3.57-1.31-.48-2.94,3.12-3.35,5.36-.72,3.9-3.59,4-6.59,5.29-5.54,2.38-11.01,2.52-15.24-.66-5.75-4.34,2.32-8.71,1.47-13.43-1.03-2.39-1.23-4.84-.59-7.36,2.13-4.07.59-7.94-.69-11.83.07-1.29.57-2.37,1.48-3.26,3.4-1.91,1.45-4.19.98-6.8-.04-.24.09-.54.2-.83h-13.38s.03.02.05.03c-.77,3.26-3.39,4.09-6.11,4.3-1.09.08-2.82-.78-3.29-1.71-.44-.87-.01-1.95.82-2.62h-8.78l42.86,113.16c1.69-.37,3.71.52,5.21,1.66,2.57,1.95.35,3.7-.54,5.71-.4.92-.6,1.93-.77,2.96l.55,1.44h95.02l-15.19-40.11c-5.66,2.75-11.66,4.79-17.9,6.34-2.23.55-5.25.85-6.25-1.44-2.61-5.95-6.44-7.88-12.95-7.42-3.46.24-1.97-4.43-1.52-6.59.41-1.99,2.34-4.14,4.89-1.29,3.05,3.41,7.89,2.34,11.75,5.68,5.39,4.66,14.6,2.56,19.2-2.64l-19.79-52.27c-1.54-1.15-2.2-3.3-2.68-5.29-.2-.81-.18-1.41-.04-1.88l-6.79-17.93c-.35-.01-.68-.03-1.01-.1h-32.9c1.36,1.33,3.31,2.68,5.92,4.11ZM1821.8,184.48c-.2,1.86-.6,5.05-3.72,3.95-2.85-1.01-5.7-2.66-5.55-6.59.09-2.27,1.48-2.95,3.53-3.04,3.07.62,6.19,1.59,5.75,5.68ZM1860.12,146.48c-2.2,1.87-4.58,1.72-7.24.67-.28-2.51,1.79-2.15,3.05-2.37,1.6-.29,3.25-.11,4.19,1.7ZM1829.25,135.69c1.49,1.02,3.1,1.86,4.99,2.98-1.23,3.92-3.72,4.29-5.65,5.3-3,1.57-5.24-.08-7.18-2.22-1.62-1.79-.59-3.49.61-4.89,2.02-2.38,4.42-3.07,7.23-1.16Z"></path><path class="cls-1" d="M1789.63,73.43h-5.63c1.33,1.19,2.8,2.41,5.63,2.85-.13-1.01-.09-1.94,0-2.85Z"></path><path class="cls-1" d="M1796.36,289.37c2.14.67,4.29,1.95,6.4,1.89,5.46-.16,10.21,1.33,12.4,4.62,5.52-.66,10.08-3.88,16.04-6.48.73,5.71,5.77,9,5.99,14.7.1-.03.19-.05.29-.08,0,0-.27.28-.27.28l.27-.28s0,.05,0,.07c2.49-1.81,4.84-4.56,7.55-5,9.11-1.47,11.58-7.25,11.57-15.18-.05-.11-.07-.18-.12-.29h0c-.07-.03-.13-.05-.21-.09-4.1,2.86-8.2,5.71-12.31,8.58,2.1-6.07,3.46-13.3,12.31-8.58.12-.08.23-.16.35-.25,0,.22-.02.41-.02.63,5.43,12.27,5.05,13.94-4.58,21.73-1.42,1.14-2.93,2.21-4.22,3.5-2.19,2.21-3.89,5.48-7.83,3.37-3.6-1.93-2.82-5.27-2.49-8.42-.09.07-.18.14-.26.21,0-.07-.02-.13-.02-.2-6.27,1.91-10.17,1.45-18-1.34-2.96-1.06-6.24-1.23-9.38-1.8-5.18-1.84-11.02-2.54-14.04-8.18-1.75,1.02-3.5,2.04-5.25,3.05-1.98,1.43-4.03,2.05-6.12,2.31l-37.71,99.57h95.02l44.9-118.56h-51.86c-2.45.7-4.78.91-6.81,0h-29.47c-.25.38-.57.79-1.04,1.24-2.95,2.8-1.53,5.9-1.08,8.98ZM1793.54,387.4c-6.45.41-8.8-3.6-12.15-5.65-1.45-.89-2.45-2.81-.56-4.47,1.53-1.34,3.68-1.5,4.91-.12,2.67,2.97,4.89,6.36,7.8,10.24ZM1827.36,373.37c-6.13,1.94-11.91.77-17.61.64-1.3,3.1-4.13,3.64-6.58,2.65-3.47-1.41-.7-2.37.74-3.2,1.87.12,3.73.25,5.6.36-.61-2.49.32-3.56,2.96-3.03q6.54-4.68,14.88,2.57ZM1809.63,365.41c.72,2.91-.62,3.89-3.3,3.61-3.99-1.38-8.74-.1-13.65-3.63,6.63-4.21,11.79-3.16,16.95.02Z"></path><path class="cls-1" d="M1751.78,433.75c.4,7.22-5.16,9.31-7.72,13.79-1.05,1.83-10.71-1.59-14.47-4.62l-5.29,13.97c6.73,2.62,12.68,7.19,20.53,7.72-3.3,4.91-6.71,3.62-9.33,4.4-3.19,1.12-6.22,1.94-5.98-3.3-1.8-2.41-4.56-2.85-7.27-3.41l-5.77,15.22h59.71c-1.42-.43-2.55-1.25-2.26-3.39.17-1.34,1.12-2.37,3.07-1.79,1.47.85,4.29.76,4.07,3.71-.05.68-.45,1.16-.97,1.48h31.41l20.77-54.86h-80.05c-.57,3.69-.63,7.46-.43,11.09ZM1761.66,471.88c.48,1.88-.14,3.55-1.91,4.52-2.18,1.2-4.41.74-6.29-.56-2.19-1.52-1.96-3.16-.33-5.45,1.59-2.22-.41-6.66,5.95-7.26.85,2.82,1.82,5.75,2.58,8.74Z"></path><path class="cls-1" d="M1740.77,422.66h-3.52l-2.04,5.39c2.42-1.48,4.21-3.32,5.56-5.39Z"></path><polygon class="cls-1" points="1693.34 48.48 1674.98 0 1579.97 0 1598.33 48.48 1693.34 48.48"></polygon><path class="cls-1" d="M1694.11,78.62c-1.3,2.41-2.72,4.67-5.93,4.52-.89.16-2.13.79-2.63.41-5.93-4.48-6.6-4.69-12.71-3.09-.15-2.39-.88-4.7-1.33-7.03h-63.73l33.97,89.7c1.17-2.01,2.31-4.32,5.43-2.1,2.91,2.09,3.55,4.27,1.79,8.16-.82,1.8-1.96,3.23-3.18,4.59l9.31,24.58h95.02l-47.31-124.93h-2.95c-1.45,2.01-3.39,3.74-5.74,5.19ZM1726.34,185.34c-.02.92-.2,1.84-.34,2.75-.06.45-.23.89-.46,1.8-2.53-2.92-5.29-4.55-3.6-7.87,1.23-2.42,4.44-.05,4.4,3.32ZM1695.47,132.84c-8.2,1.43-11.63,11.64-21.12,10.24-2.09-.31-4.94.96-5.36-2.38-.46-3.65,2.09-2.45,4.31-2.71,3.3-.39,4.09-3.2,3.36-6.34-.38-2.62.35-4.07,3.29-3.2,2.26,1.81,4.21,2.84,7.23.69,3.48-2.49,5.82.41,8.29,3.71Z"></path><path class="cls-1" d="M1680.12,397.71h25.08l24.41-64.46c-.1.04-.2.1-.3.14-3.01,1.02-5.66,5.58-9.3,1.22-.5-.59-.91-1.84-.63-2.42,1.96-4.1,5.73-3.69,9.31-3.45.71.05,1.43.23,2.43.5l13.03-34.42c-2.05,1.51-5.04,3.06-9.26,4.86,1.05-5.62,6.86-11.02.46-15.83l-.02-1.33c4.7-.57,10.05-2.41,11.94,4.08l2.82-7.45h-95.02l-44.63,117.84c.86.09,1.55.35,2.13.73h50.49c.34-.43.72-.85,1.19-1.25,4.27-3.68,11.68-2.72,15.85,1.25ZM1672.37,357.14c-.16-.53.68-1.9,1.26-2.05,5.25-1.34,6.77,2.27,8.41,7.61-4.91-1.14-8.45-1.6-9.67-5.56ZM1686.48,368.81c-.02-1.54.98-2.04,3.91-1.25-.09-.14,1.01.87,1.11,1.96.12,1.42-1.29,1.96-2.57,1.79-1.35-.18-2.44-1.02-2.45-2.5ZM1631.19,380.32c-1.42-.93-2.27-2.74-3.38-4.15.4-.71.79-1.43,1.19-2.14,1.59.55,3.29.91,4.77,1.68,2.59,1.35,6.32-3.82,8.05,1.47.23.71-.08,2-.61,2.51-3.11,3.01-6.66,2.84-10.01.63ZM1687.12,387.14c-2.55-.78-5.55-.05-6.73-3.25-.46-1.23-.52-2.76-.27-4.06.31-1.68,1.79-1.49,3.18-1.47,12.25.15,13.58-1.03,15.98-13.93,4.64.33,7.42,2.91,9.04,7.21,1.55,4.09,1.63,8.07-3.65,8.02-7.11-.08-9.43,9.93-17.55,7.48Z"></path><path class="cls-1" d="M1600.1,427.15c-.43.23-.83.34-1.25.51l-9.02,23.8c.24-.14.44-.29.71-.42,2.37,4.81-1.52,7.3-3.3,10.87-.27-.62-.5-1.22-.68-1.8l-6.59,17.41h4.91c.84-.59,1.9-.96,3.38-.95.5.32,1.05.63,1.62.95h85.1l20.78-54.86h-94.39c1.49,2.14,1.33,3.06-1.27,4.49ZM1599.84,468.69c.5,1.89,4.06,3.15,1.95,5.3-1.23,1.25-4.31,1.79-6.01,1.16-3.07-1.14-2.62-4-1.33-6.58,1.83-1.62,3.62-1.63,5.39.12ZM1638.76,464.04c.77,1.52-1.31,1.7-2.49,2-1.23.02-2.47.03-3.7.03-2.17-1.5-1.55-2.92.45-3.65,2.14-.78,4.67-.47,5.75,1.62ZM1605.2,430.77c-.02,7.71-3.11,13.18-12.76,15.89,2.3-8.27,10.84-9.64,12.76-15.89ZM1676.98,451.73c-.31,1.3-.6,2.83-2.41,2.12-1.63-.63-3.79-1.18-3.97-3.23-.12-1.43,1.6-1.81,2.85-1.82,1.9-.02,3.61.42,3.53,2.93ZM1643.27,439.62c-1.3,5.55,1.26,12.93-6.39,16.05-3.85-6.25.78-11,1.39-16.2.16-1.38,1.55-2.23,3.05-1.58.79.34,2.05,1.31,1.95,1.72ZM1660.25,432.08c1.86.4,3.2,1.59,3.33,3.76-1.44,2.38-3.71,2.04-5.89,1.65-2.19-.39-3.05-2.15-2.24-3.93.84-1.86,3.02-1.86,4.8-1.48ZM1631.37,432.71c-3.84,6.05-11.78-.87-15.52,4.93-4.52-.2-3.6-2.72-2.28-5.42q9.42-6.7,17.8.49Z"></path><path class="cls-1" d="M1533.68,48.48c2.25-3.89,3.13-9.32,3.79-14.64,1.19,4.8,1.09,9.71.94,14.64h18.41l-18.36-48.48h-95.02l18.36,48.48h71.87Z"></path><path class="cls-1" d="M1532.64,198.36c2.57-4.34,6.05-8.2,11.92-8.55,1.46,4.56-.8,6.6-3.25,8.55h66.78c1.7-.38,3.48-.5,5.33-.45l-31.72-83.77c-.08.06-.14.12-.23.18-3.96,2.6-6.23-1.45-8.59-3.97-5.37,7.11-16.86,5.04-20.98,14.2-.21.48-2.64.42-3.69-.1-1.59-.8-1.04-2.5-.14-3.49,5.81-6.37,11.41-13,17.75-18.79,3.5-3.21,5.61.12,6.7,3.58,2.23.87,3.95.1,5.64-.94l-7.1-18.75c-1.07-.07-2.2-.45-3.27-1.24-2.42-1.79-4.81-3.61-8.01-6.02,3.15-1.29,5.81-1.53,8.18-.95l-1.68-4.43h-38.36c.52.73,1.05,1.49,1.68,2.41-4.98,2.56-8.6.62-12.77-2.41h-45.57l47.31,124.93h14.06ZM1525.11,92.89c.02-.09.04-.17.06-.27.09-.02.18-.04.28-.06-.44-11.86-.31-11.83,10.88-7.2,4.04,1.68,9.25-.64,12.48,3.76-1.32,1.49-2.85,1.77-4.6.84-6.62-1.79-12.55,1.39-18.77,2.6,0,.13,0,.25.02.38h0s0,0,0,0v.02l-.02-.02c-.12-.03-.22-.03-.34-.06-1.64,9.39-9.49,4.79-14.5,6.56,4.18-3.77,8.1-8.17,14.5-6.56ZM1530.11,159.07c-4.19-3.73-6.84-7.23-12.86-1.26-2.66,2.65-9.27-1.19-13.82-5.51,2.75-2.18,4.7-4.1,6.98-5.45,9.5-5.64,14.34-4.87,20.02,4.61,3.45,5.77,7,8.02,14.59,3.04-7.97,10.41-8.14,10.59-14.91,4.57ZM1549.93,161.94c5.29-.66,8.9-1.1,13.5-1.67-1.77,4.92-3.38,9.36-5.09,14.1-5.68-2.34-5.6-7.43-8.4-12.43ZM1571.17,191.88c-.79.64-1.81,2.1-2.73,2.04-.96-.06-2.41-1.46-2.62-2.49-.33-1.65,1.45-1.82,2.62-1.85,1.21-.03,2.59.16,2.74,2.29Z"></path><path class="cls-1" d="M1486.96,422.66c.2,1.19-.5,2.55-2.38,3.66-7.06-.54-14.84,5.52-21.23-1.37l-19.91,52.57h95.02l9.55-25.23c-5.02,3.87-10.2,2.73-14.66,1.88-6.36-1.22-12.25-4.68-19.09-2.4-.67.22-2-1.61-3.03-2.47,3.46-4.69,9.77-1.36,13.62-4.93,6.83,5.8,14.27,8.73,24.45,4.52l9.93-26.22h-72.28ZM1475.36,432.5c.54-1.55.7-4.51,2.54-3.57,1.18.59.89,4.14,1.27,6.37-4.91,4.12-2.43-2.02-3.81-2.8ZM1468.58,455.37c-2.32-4.83-1.65-7.92.55-11.03,6.64,4.05,2.16,6.74-.55,11.03ZM1544.32,424.28c2.47,1.12,6.29,3.35,5.08,5.58-1.98,3.64.3,8.7-3.95,11.18-1.85,1.09-3.77.21-4.9-1.23-2.8-3.57-6.68-6.41-8.18-12.45,4.73.5,5.52,6.48,10.18,4.61,1.15-1.22.19-2.27-.53-3.36-.73-1.09-2.34-2.2-1.21-3.53.65-.77,2.6-1.21,3.51-.8ZM1525.45,440.62c-1.31-.25-2.73-.65-2.45-2.3.48-2.84,2.77-2.88,4.98-2.84.26,2.26-1.61,3.46-2.53,5.14ZM1508.31,424.77c4.6,4.93,10.64.92,14.7,4.7-.04,9.89-7.07,12.5-14.73,14.69-6.54,1.87-10.47-.68-12.64-6.83-.45-3.36-4.12-8.33-.26-9.65,4.12-1.4,9.95-6.1,12.92-2.91Z"></path><path class="cls-1" d="M1483.66,371.34l-4.18,11.05c2.42,3.7,1.85,7.26-1.86,10.57-1.01.9-1.96,2.1-3.14,2.64l-.8,2.12h12.79c.04-.2.07-.4.11-.59,1.26-5.59,8.42-13.83,11.86-13.87,3.62-.04,6.95,6.5,7.53,14.46h17.47c.89-.79,1.99-1.36,3.4-1.56.23.52.43,1.04.62,1.56h41.23l37.15-98.09c-.9-.68-1.79-1.66-2.68-3.11,1.48-.24,2.72-.17,3.83.07l2.12-5.62c-1.93-.37-2.41-4.24-3.76-3.97-7.39,1.5-11.55-2.91-15.93-7.84h-70.85l-5.48,14.47c3.22,1.2,7.19,5.35,7.06,8.88-1.29,5.58-4.41,10.02-10.02,12.04-1.7.61-3.54.81-5.37,1.06l-5.98,15.79c1.7,1.98.81,4.05-2.38,6.27l-12.65,33.41c.18-.01.33,0,.52,0-.22.09-.41.18-.62.27ZM1516.54,375.53c-.15,4.78,7.21-.63,6.57,4.78-.25,2.07-1.86,2.91-3.75,3-4.3.21-4.97-3.05-5.31-6.21-.12-1.14.65-2.64,2.49-1.57ZM1537.48,307.12c-4.19,4.48-7.51,7.09-10.44,13.26q.06-12.21,10.44-13.26Z"></path><path class="cls-1" d="M1410.35,44.71c1.57-.82,3.02-2,5.03-.78,1.85,1.12,3.41,2.77,4.14,4.55h.8l-18.36-48.48h-95.01l18.36,48.48h83.5c-.04-.08-.08-.16-.12-.24-.03-1.46.29-2.8,1.68-3.53Z"></path><path class="cls-1" d="M1367.04,141.46c1.4.02,1.88,1.98,1.4,3.16-1.25,3.1-3.07,4.12-5.13,4.2l8.8,23.25c.46-3,2.67-4.5,4.88-5.84,2.76-1.66,5.21.55,3.99,2.57-2.66,4.39-.54,5.45,2.78,6.96,2.21,1,1.93,3.38.34,4.43-2.52,1.66-4.68,3.68-6.71,5.83l4.67,12.33h52.94c-1.51-1.82-3.05-5.08-5.64-10.61,5.49-1.6,10.81-4.47,10.98,5.39.04,2.25,4.12,2.47,4.34,5.22h32.39l-37.99-100.31c-.27-.37-.54-.73-.82-.98-1.22-1.08-3.03-1.93-2.41-4.23.38-.23.73-.32,1.1-.43l-2.5-6.6c-.61.04-1.23-.12-1.87-.63-3.83-3.05-9.61-4.32-10.77-10.06-.12-.57-.29-1.12-.43-1.68h-51.16c-1.33,2.57-3.79,1.01-6.06,0h-29.41l14.85,39.2c1.22-.3,2.4-.57,3.39-.75,1.89-.35,2.97,2.63,1.86,4.03-1.05,1.33-2.03,2.58-2.58,3.78l8.54,22.55c1.83-.8,4.07-.79,6.23-.77ZM1420.22,197.03c-7.42,1.52-11.16-1.86-16.3-6.54,7.39-.95,11.55,1.36,16.3,6.54ZM1470.83,186.07c-.55,3.19-1.76,6.55-5.79,6.45-2.61-.07-4-2.26-3.75-4.76.38-3.8,3.07-5.29,6.29-5.55,2.64.24,3.54,2.15,3.25,3.86ZM1422.13,177.74c-1.64,2.89.63,8.21-4.2,8.75-5,.56-3.96-5-6.08-6.83.47-5.73,4.95-3.44,7.34-4.74,1.22-.68,4.05.85,2.94,2.82ZM1437.29,150.26c.29,1.49-.68,2.71-2.12,2.79-3.43.18-4.23-2.74-5.38-5.13-.92-1.93.64-2.13,1.95-2.58,2.57.74,4.95,1.89,5.55,4.93ZM1362.17,79.14c-3.05,4.65-7.62,5.71-12.33,6.72-.72-11.57-.12-11.92,12.33-6.72ZM1413.23,90.88c4.85,3.2,7.41-2.87,11.52-1.91,2.71.64,5.36,1.63,6.46,4.31.71,1.73-.5,3.45-2.07,4.6-2.44,1.8-4.11,2.38-6.57-.77-1.89-2.43-7.32.39-9.34-6.24ZM1357.45,100.05c-.12-2.08,1.64-3.25,3.24-3.8,2.68-.92,3.79,1.21,4.73,3.08.33,2.68-.98,3.36-3.07,2.66-1.67-.56-4.69,1.97-4.9-1.94ZM1387.82,107.18c4.24,2.37,9.21-2.26,13.08,1.47q-8.22,5.54-13.08-1.47ZM1414.82,107.73c.71-1.43.11-3.52.11-5.79,4.1-.32,7.46.18,8.59,4.49.78,2.99,1.76,5.2,5.3,4.85,1.95-1.29,3.88-1.28,5.78.09,1.46,3.23.5,5.22-3.04,5.55-5.18.49-9.68.45-7.87,8.59,1.05,4.75-6.32,3.27-8.57,6.46-1.18-1.16-1.39-2.49-.64-3.98.68-1.17,2.02-3.32,1.95-3.38-7.38-5.04-4.63-10.83-1.62-16.89ZM1362.17,131.12c-3.51-2.36-2.95-6.77-3.16-10.54-.02-.28,1.57-.64,2.84-1.14,5.14,1.29,7.51,5.82,9.93,10.21.26.48-.41,1.8-.99,2.4-3.16,3.27-6.26.65-8.61-.93ZM1427.07,136.84c-.59-.15-1.01-1-1.88-1.91,1.59-.99,2.92-2.25,4.48-2.67,1.83-.48,2.03,1.21,1.59,2.45-.68,1.9-2.3,2.59-4.19,2.13ZM1387.64,138.73c1.45-.02,2.9.38,2.88,1.84-.03,2.46-2.14,2.29-3.84,2.32-1.23.02-2.95-.19-2.89-1.62.09-2.27,2.35-2.1,3.85-2.55Z"></path><path class="cls-1" d="M1370.43,309.88l-7.28,19.21c7.11-.14,8.6,3.07,10.7,14.25-5.05-.78-9.8-2.44-14.5-4.21l-4.11,10.85c3.91,1.49,5.53,4.45,7.22,7.9,1.55,3.16,2.23,8.62,9.63,4.14,4.89-2.97,9.83,5.24,12.36,10.08,1.73,3.3,1.95,8-3.07,11.85-7.32,5.61-14.39,11.09-24.07,13.66,1.07-2.48,2-4.61,2.92-6.74,1.72-2.04,1.88-4.03-.2-5.95-1.39-2.36-4.44-5.22-3.9-6.96,2.51-8.16,1.39-15.59-2.66-23.27l-15.86,41.87c.97-.57,2.17-.95,3.76-.96,1.7.36,3.83.99,5.37,2.13h78.39c2.4-1.21,4.91-2.12,7.76-1.87l13.58-35.86c-.27-.05-.52-.04-.8-.14-.02.07-.02.14-.04.2h0c-.08-.03-.16-.04-.23-.06.27,4.08-1.07,6.32-5.47,4.14-2-.99-3.66-2.68-5.48-4.05-2.43-.48-6.84-.52-3.93-4.25,3.66-4.69,7.99-9.53,16.17-10.62-1.48,5.9-5.47,8.71-8.15,12.32,1.66,2.63,4.5,1.86,6.86,2.47,0-.07,0-.13,0-.2.1.04.19.03.29.06.47-1.7.53-3.99,1.63-4.8.53-.38,1.02-.77,1.48-1.16l3.38-8.93c-.2-.79-.47-1.6-.9-2.48-.79-1.64-1.3-5.16,1.55-5.71.84-.16,1.64-.05,2.37.21l10.15-26.8c-.75-.92-1.51-1.93-1.96-3.33,1.13-.09,2.24-.16,3.29-.17l3.98-10.51c-.05-.26-.11-.5-.14-.82-.25-2.7.64-3.96,2.1-4.34l4.5-11.87h-2.36c-1.96,2.7-4.85,3.3-8.49,2.09.02-.62-.11-1.15.09-1.42.17-.22.34-.45.51-.67h-43.64c.43.47.92.92,1.16,1.47,1.74,3.93,6.33,7.53,2.63,12.29-2.2,2.83-9.38-1.62-13.41-6.51-1.75-2.14.54-5.22-.39-7.25h-21.68c2.79,2.92,1.31,7.21-4.36,13.75h.02l-.23.27s.23-.27.24-.27c.06.03.11.06.17.09,3.02-1.48,7,.5,9.62-3.14,4.19-5.81,9.48-3.2,15.34-1.9-12.9,11.63-12.97,11.68-24.97,5.04-.14.07-.28.1-.41.18.09-.09.14-.17.21-.27-4.03.14-6.59-.61-3.19-5.2,3-4.05,4.21-6.37-2.95-4.75-.15.04-.25,0-.39,0l-7.17,18.94c.53,1.48,1.01,3.46,1.65,6.23-1.59.53-3.14,1.12-4.67,1.75ZM1340.44,389.86c.24-2.05,1.8-2.79,3.65-3.01,1.4.48,2.2,1.67,1.56,2.86-.56,1.04-1.84,1.95-2.99,2.32-1.58.51-2.38-.74-2.21-2.17ZM1430.53,376.66c3.3,2.81,4.26,5.4-.22,7.96-1.18.68-2.39,1.46-3.29,2.48-1.73,1.97-3.75,2.84-5.95,1.35-2.64-1.77-1.75-4.22.22-5.64,3.12-2.27.77-6.38,3.43-8.76,3.3-.08,4.43,1.43,5.81,2.61ZM1401.03,381.83c-8.04-3.43-8.86-5.41-5.51-13.3,1.71,1.45,3.34,3.02,5.15,4.33,3.97,2.89,3.64,5.84.36,8.97ZM1420.66,365.38l.23.21c-2.51,6.5-5.41,7.37-8.83.62-3.32-.2-6.84,4.74-9.97-.38,4.29-.54,6.46-4.43,9.85-6.39,2.91,1.98,5.81,3.96,8.71,5.94ZM1381.32,298.57c1.42-.83,3.7-.79,4.86.72,2.12,2.79,2.19,5.57-1.23,7.62-.85,2.4-3.64,4.72-1.28,7.35,1.89,2.1,4.48,3.89,1.02,6.26-2.68,1.83-6.02,2.27-8.66-.49-2.41-2.52-3.67-5.54-.2-8.04,1.94-1.4,3.42-2.8,3.94-5.14-.14-2.91-1.9-6.28,1.55-8.28Z"></path><path class="cls-1" d="M1354.4,430.37c.1,3.52,3.34,3.71,5.96,1.37,1.7-1.52,3.17-3.29,4.94-4.7,1.98-1.59,4.27-4.77,6.79-1.77,3.03,3.61-1.68,3.96-3.19,5.64-.91,1-1.89,1.95-2.84,2.92,4.64-1.52,9.25-3.16,13.95-4.45,1-.27,2.94.39,3.41,1.22,1.04,1.8-.03,3.73-1.88,4.09-4.98.96-9,3.57-12.88,6.61-.7,1.54-1.4,3.07-2.11,4.61,3.8,1.26,5.61-1.84,8.15-3.59,2.56-1.77,6.19-4.75,8.2-4.01,6.12,2.27,8.91,1.29,9.55-5.5.16-1.76,2.36-3.02,4.24-1.97,2.31,1.3,3.03,3.77.78,5.5-3.65,2.8-6.35,5.41-2.66,10,2.11,5.13,6.59,3.97,10.61,4.09,1.3,0,2.48.33,3.58,1.04.78.86,1.4,1.73,1.82,2.62l.15-.38c-.07-.21-.1-.42-.18-.62.15-1.24.7-2.27,1.59-3.11l5.67-14.98c-4.75-1.97-9.54-3.84-14.02-6.29-2.67-1.46-5.75-2.79-6.11-6.04h-48.69c2.78,1.17,5.02,3.02,5.16,7.71Z"></path><path class="cls-1" d="M1385.4,464.65c-1.13-.74-2.23-1.54-3.32-2.34.27.97.43,2.03.44,3.2.97-.56,1.93-.82,2.88-.85Z"></path><path class="cls-1" d="M1323.9,477.52c2.7-1.12,4.98-.71,7.18,0h1.46c-5.31-12.68-5.6-15.45-2.7-22.09,1.01-2.32,3.31-2.94,5.06-4.29,1.29-4.65,4.62-8.03,7.21-11.86.09-.57.19-1.13.28-1.7,1.59-4.82-8.46-10.37-2.81-14.92h-3.79c2.72,6.38,1.29,13.36,1.96,19.98.61,5.92-4.94,3.05-8.01,3.47-5.23-2.64-12.45-4.07-3.91-12.09,1.65-1.54,1.87-7.26,3.71-10.8.13-.25.29-.36.43-.56h-2.26l-20.77,54.86h16.96Z"></path><path class="cls-1" d="M1396.06,468.67l-.22-.05s0,0,0,0h0c-1.03,5.55-2.51,9.94-9.06,4.57-2.48-2.03-5.02.48-7.55.61-1.77.27-3.66,1.1-5.29.75-20.95-4.51-20.3-3.32-37.42,2.36-.84.28-1.71.44-2.58.61h21.88c-.48-.71-.66-1.58-.27-2.45.26-.58,1.47-.73,2.25-1.07,1.46.49,2.21,1.52,1.86,3.05-.04.18-.12.31-.18.47h42.48l.12-.33c-.22-.91-.34-1.87-.43-2.81-.27-2.8,1.12-3.23,2.8-3.46l3.95-10.41c-4.61,2-9.03,4.3-12.53,8.09.06.02.13.05.2.07Z"></path><path class="cls-1" d="M1366.06,433.84c.05.42.21.8.41,1.17-.14-.39-.27-.78-.41-1.17Z"></path><path class="cls-1" d="M1419.32,427.16c.53.06,1.05.23,1.57.37l1.84-4.87h-9.01c-.41,2.26,1.44,4.04,5.6,4.5Z"></path><path class="cls-1" d="M1292.3,153.57c-.46.9-.92,1.8-1.38,2.69.96-.64,1.18-1.66,1.38-2.69Z"></path><path class="cls-1" d="M1215.91,73.77c-.12-.12-.21-.23-.32-.34h-5.95c-.11,2.08-.96,4.24-2.17,6.4-1.28,2.29-2.54,4.53-4.41,6.36l39.76,104.98c.47.45.95.89,1.41,1.34,2.71,5.01,5.48,4.16,8.28.09.44-4.29-.98-8.82,2.08-12.79q-10.76-1.04-11.32-9.38-2.2-7.52-11.18-11.29c6.12-3.13,11.44-1.9,15.48.41,5.27,3.01-2.43,6.89-.65,10.68,7.79.1,14.89-3.1,22.3-4.83,1.71-.4,2.99-1.27,4.97-.26,5.91,3.02,6.39,3.02,8.36-3.04,1.47-4.55,5.24-4.45,8.39-5.84-.18-2.23,1.76-5.98-3.32-4.7-2.26.57-4.64,1.01-4.9-2.37-.09-1.2.2-2.96,1-3.6,1.75-1.41,3.19.2,4.63,1.25,1.78,1.31,3.67,2.46,5.51,3.67,4.09,3.88,8.08,8.19,14.15,3.28,4.41.02,4.51,1.98,2.21,5.01-7.12,3.58-11.45,10.87-20.3,12.92-5.51,1.29-.04,5.87,3.18,9.01-5.46,1.89-11.32.65-15.48,4.93-1.39,1.43-4.07,1.12-5.77-1.37-5.25-7.68-6.57-.51-8.95,2.56.37,3.89,3.39,4.43,6.31,5.11,2.04,1.92,3.38,4.09,4.2,6.37h59.9c1.48-2.15,3.32-3.7,5.39-4.9l-5.57-14.72c-1.7-.59-2.65-2.58-2.81-4.8-.05-.78.07-1.37.3-1.84l-3.12-8.24c-1.49,1.46-3.65,2.11-5.37,3.24-6.03,3.98-6.03,3.87-7.06-4.64-.14-1.14-1.03-2.18-1.69-3.25-.18-.05-.32-.03-.51-.1l.28-.28c.07.12.16.25.23.38,4.71,1.2,6.11-4.66,10.04-5.16.12-.02.23-.02.35-.04l-30.52-80.59h-71.43c-.76.79-1.64,1.49-2.73,2.02-1.21-.28-2.27-.86-3.18-1.68ZM1325.59,177.42c1.64,1.28,2.5,3.66,1.13,4.72-6.27,4.94-7.98,15.74-19.75,15.19,2.55-9.11,11.42-11.82,14.14-19.34.75-2.09,2.8-1.89,4.47-.57ZM1252.51,148.57c4.18,3,4.09,5.97-.93,7.15-6.32,1.48-15.29-4.35-17.62-10.49-1.04-2.73.1-4.97,2.3-5.55,4.14-1.08,6.88-4.41,10.7-5.85,6.2,3.23-.36,11.39,5.56,14.73ZM1252.5,145.41c-2.86-5.25-1.69-7.1,5.43-8.58.47,4.34-3.32,5.91-5.43,8.58ZM1282.93,134.32c1.86,2.53-1.07,2.7-2.19,3.66-.96.82-2.12,1.4-3.21,2.08.02.16.05.31.07.47-.16-.04-.32-.1-.48-.15-4.18,4.34-9.16.47-15.12,3.12,5.43-10.15,10.44-4.61,15.12-3.12.07-.07.13-.1.2-.17l.29.32s-.29-.32-.29-.34c.07-.05.15-.09.22-.13-.18-1.2-.4-2.4-.45-3.61-.07-1.82,0-3.94,2.37-3.99,1.17-.03,2.75.87,3.47,1.85ZM1285.34,122.28c-4.48.29-7.27-3.28-10.89-4.94-2.19-1-3.6-2.87-2.83-5.48.69-2.36,2.59-3.74,4.87-4.18,2.73-.54,4.09,1.63,5.16,3.59,1.52,2.75,2.71,5.68,4.05,8.54,1.22,1.02,1.17,1.86-.36,2.47ZM1300.43,108.38c-.54,1.97,2.34,4.29-.41,5.79-1.66.91-3.39-.11-4.84-1.22-2.4-1.84-1.52-3.75-.07-5.64.98-1.29,1.12-3.47,3.3-3.44,1.86,1.1,2.51,2.73,2.02,4.52ZM1270.48,101.48c-.43,6.2-5.79,3.15-9.04,5.79-.27,3.43,4.27,5.05,4.66,9.36-5.75.91-7.74,5.85-8.76,11.39-8.04-4.73-10.12-15.29-20.07-16.64-2.08,6.64,5.46,8.59,7.16,15.34-9.56-1.95-12.25-9.8-17.54-14.26-2.28-1.93-.56-5.33,3.38-7.14,5.75-2.64,12.2,3.29,15.21.6,4.08-3.64,7.91-6.15,12.88-6.32,4.01-.14,8.05,1.2,12.11,1.89ZM1219.51,75.24c.07,2.3-.1,4.55-1.89,6.25-4.07,3.85-7.37,7.96-5.45,14.45-2.37-3.11-4.74-6.23-7.11-9.33,4.75-3.89,8.68-8.82,14.45-11.37Z"></path><path class="cls-1" d="M1182.72,27.93c4.64-.93,2.85,1.54.97,3.36-.42,5.78,5.39,6.63,8.03,7.38,6.93,1.97,10.24,5.35,11.2,9.82h8.15c-.83-1.15-1.54-2.59-2.27-4.6,10.41-.93,20.17-4.71,30.27-1.01,2.56-2.86-.82-6.93,2.68-9.07,2.31-.58,3.76-.33,2.42,2.59.05,1.84.16,3.69.12,5.53-.05,2.46,1.89,4.41,2.95,6.56h36.57l-18.36-48.48h-95.01l10.75,28.38c.5-.18,1.02-.35,1.54-.45Z"></path><path class="cls-1" d="M1240.03,386.38c.71-3.39,3.64-6.27,5.59-9.39,3.12-5.02-1.29-5.02-4.02-6.12-1.71-1.07-3.84-1.26-6.01-1.37,1.27.91,2.36,2.23,3.14,4.19-6.08,3.39-5.46,9.91-6.39,15.56-3.67-.93-5.38-3.22-5.2-6.05.23-3.89-1.33-5.08-4.71-6.66-5.7-2.66-6.93-6.87-.56-10.84,1.57.75,3.34,1.07,5.14,1.34-.93-1-1.66-2.4-2.07-4.47-.06-.91-.14-1.82-.23-2.72.21-1.83.23-3.49.04-4.98-1.29,1.52-3.09,2.49-5.62,2.73-1.05-.11-2.1-.2-3.15-.3l-15.31,40.43h47.07c-1.32-.9-3.07-1.64-5.36-2.22-5.31-1.34-2.93-6.34-2.33-9.12Z"></path><path class="cls-1" d="M1288.22,371.03c-.38-1.68-.48-3.06-.46-4.29-2.01.88-3.94,2.08-5.72,3.79-2.18.09-4.48-.46-6.93,1.7,2.74,3.05,4.02,8.18,10,4.27,2.54-1.65,2.71.99,3.4,2.46,1.55.63,3.19,1.1,4.62,1.95.93.56,2.31,1.68,1.12,2.87-.7.69-2.27.5-3.44.71-1.39,1.77-4.31,4.2-3.89,5.21,1.96,4.71-.84,6.29-3.57,8.02h12.3l6.94-18.32c-5.35-1.53-10.54-3.43-14.38-8.36Z"></path><path class="cls-1" d="M1321.56,328.49c.07.11.12.23.19.34l2.62-6.91c-2.91,1.6-5.02,3.32-2.81,6.57Z"></path><path class="cls-1" d="M1236.73,328.24c2.79-12.64,14.23-23.27,23.88-21.41,5.03.97,1.74,3.69.13,5.65-1.71,1.37-4.42,2.7-3.02,5.23,1.19,2.16,3.67,2.27,5.65.21,8.52-2.86,16.36-7.81,25.67-8.25,12.95-.61,18.72-11.48,26.28-19.54,1.84-1.97.59-5.58-2.12-7.13-2.96-1.69-6.33-2.07-8.3,1.52-1.27,2.34-1.42,5.18-3.18,7.48-1.09,1.41-1.91,4.24-3.49,3.68-9.24-3.22-17.23,5.46-26.3,2.54-7.2,1.15-11.36-3.77-16.05-7.23,1.68-6.69,6.81,1.12,8.66-3.34-1.24-3.64-6.01-1.2-7.57-4.36.08-.4.03-.96.28-1.28,1.96-2.53,19.47-.41,20.51,2.53.84,2.4-1.5,2.75-2.74,3.78-2.78,2.31-1.99,4.66-.09,7.04,5.68.88,7.82-4,10.85-7.12,2.52-2.6,4.22-5.98,6.44-8.9.05-.07.09-.11.14-.18h-46.79l-19.68,51.96c.53.34,1.05.7,1.57,1.03,6.87,4.35,7.53,4.05,9.29-3.9Z"></path><path class="cls-1" d="M1284.08,424.32c-.53-.11-.91-.35-1.35-.54-.02.76-.04,1.52-.05,2.28-.43.12-.86.2-1.28.35-2.05.73-4.74,1.79-5.71-.63-.74-1.86,2.24-2.14,3.62-3.03.05-.03.11-.06.17-.09h-5.54c-.96,5.33-4.54,9.98-10.32,12.08-4.18-3.66-8.08-7.51-10.93-12.08h-61.5l-20.78,54.86h30.62c2.11-8.75-6.38-12.19-10.64-17.5-2.25-2.8-3.87-4.71-1.71-8.03-1.07-.61-2.76-1-3.09-1.89-.54-1.48.86-2.3,2.24-2.05,2.06.36,4.5.59,3.77,3.86,3.71,4.49,6.51,9.57,11.04,13.63,3.17,2.84,6.42,6.95,5.47,11.98h8.64c-.11-.34-.27-.63-.3-1.03.25-2.55,2.1-2.83,3.79-2.73,2.25.13,3.98,1.19,3.84,3.76h10.04c2.43-1.21,5.11-2.07,7.14-3.76-.02-.2-.03-.41-.05-.61,0,.02.33.38.34.4-.09.08-.2.13-.29.21.1,1.25.21,2.5.32,3.76h23.86l8.49-22.41c-1.27-.71-2.52-1.41-3.75-2.05-2.13-1.11-9.33-5.34-6.53-11.98,6.3-2.36,12.63-4.68,18.56-7.86l3.29-8.68c-.46-.03-.93-.09-1.42-.22ZM1241.33,473.14c.08.14.13.26.22.4l-.34-.4s.07,0,.12,0c-3.07-4.98-1.09-8.37,3.98-10.09,3.37-1.14,7.06-1.29,10.88-1.94-3.23,10.27-5.96,12.4-14.86,12.03ZM1236.75,437.5c7.47,3.89,16.21,6.2,20.44,15.2-4.33,1.95-8.23,1.41-10.88-2.01-3.66-4.73-8.39-4.45-13.3-4.22.01.07.02.14.04.21l-.35-.2c.1,0,.21,0,.31-.01-.17-.82-.26-1.67-.58-2.43-.8-1.9-4.12-3.19-2.13-5.66,1.51-1.88,4.57-1.86,6.45-.88Z"></path><polygon class="cls-1" points="1147.29 48.48 1128.93 0 1033.91 0 1052.27 48.48 1147.29 48.48"></polygon><path class="cls-1" d="M1105.9,159.38c1.6.64,1.7,1.45.26,2.43-2.84,1.96-5.4,5.07-9.86,2.93l12.73,33.61h17.71s-.04-.04-.06-.06c-1.53-1.89.05-3.38.98-4.87,1.33-2.13,3.59-2.65,5.8-3.29,1.17-.34,3.22-1.05,2.52-2.19-6.11-9.93,5.15-6.74,7.53-10.19.52-.75,2.28-1.65,4.1.95-5.17,3.56-4.76,10.56-8.77,15.35-1.32,1.58-2.66,3.11-4.26,4.29h30.4c-.89-1.73-1.36-3.82-1.56-6.56,3.08,2.21,5.29,3.97,6.09,6.56h34.54l-28.02-73.99c-1.42-.17-2.77-1.04-2.97-2.62-.16-1.28.31-2.04,1-2.58l-17.32-45.73h-95.02l9.11,24.05c.68.03,1.4.17,2.25.61-.08,1.1-.4,2.18-.79,3.26l23.4,61.79c3.05-2.62,6.33-3.83,10.2-3.76ZM1121.08,117.01c-1-7.64,1.15-7.85,12.22-8.89-1.38,5.17-10.4,4.3-12.22,8.89.24,1.85.66,4.11,1.19,6.95-1.6-3.23-1.8-5.39-1.19-6.95Z"></path><path class="cls-1" d="M1122.4,394.42c-1.83-.32-4.07-1.32-4.32.92-.1.86-.27,1.65-.48,2.37h11.54c-1.45-1.59-3.62-2.73-6.73-3.29Z"></path><path class="cls-1" d="M1203.25,281.25l.8-2.1h-2.71c.13.14.23.28.37.42.47.44,1.02,1.05,1.54,1.68Z"></path><path class="cls-1" d="M1199.93,290.02l.59-1.57c-.31.49-.51,1.01-.59,1.57Z"></path><path class="cls-1" d="M1194.23,281.22c.51-1.08-.29-1.61-1.44-2.07h-25.81c.2,2.94.37,5.87-2.68,8.03-1.24-2.89-2.25-5.73-1.02-8.03h-14.45c.61.87,1,2.05.9,3.76-.14,1.53-2.16,1.96-3.86,1.92-2.48-.08-4.35-1.37-3.93-4.36.07-.49.23-.92.43-1.32h-33.33l-44.9,118.56h32.99c-.81-1.24-1.42-2.71-1.77-4.44-3.02-6.68,1-6.21,5.36-5.39,4.57-.88,6.15,2.59,7.91,7.85,3.97-6.91,5.26-12.84,6.91-18.87,4.47,1.84,4.16,8.16,9.32,7.71,6.42-3.79,11.13-8.71,10.93-16.88,2.21-1.56,4.22-1.09,6.11.62.35,2.18.24,4.58,1.14,6.5,1.84,3.93,1.37,5.37-3.32,5.52-4.37.14-4.43,6.59-8.81,7.34.21,2.3.71,4.65,3.44,4.84,4.02.27,5.66,2.45,6.65,5.21h18.16l7.41-19.59c-.14-.5-.23-1.06-.21-1.74.04-1.58-.31-3.82,2.15-4.47.15,0,.24.08.38.09l23.66-62.46c-.11.06-.22.1-.34.16,1.53-10.22-2.23-19.44,2.03-28.48ZM1172.83,284.94c2.6-.69,5.21-1.37,6.84,1.75,1.14,2.2,1.2,4.18-1.32,5.5-1.69-2.54-4.84-3.93-5.53-7.25ZM1166.62,297.32c2.66.25,3.87,2.38,4.78,4.42.83,1.84-.78,2.5-2.16,2.2-2.54-.54-3.22-2.94-4.16-4.89,0-1.21.52-1.82,1.55-1.73ZM1157.6,306.45c-1.86-1.21-4.05-2.42-3.83-5.16.11-1.39.89-2.68,2.65-2.17,2.47.71,3.06,3.12,4.17,5.05.22.38.27.87.7,2.34-2.04,0-3.09.33-3.69-.06ZM1122.27,362.93c-1.53,2.35-3.94,3.64-7.23,4.72-1.53-6.12,2.41-7.79,8.37-10.39-.61,3.22-.5,4.68-1.14,5.66ZM1150.42,331.6c-.18,1.22-.99,2.42-2.74,1.69-2.41-1.01-5.41-1.52-5-5.12.2-1.79,1.2-3.34,3.3-3.82,2.44,1.79,4.98,3.64,4.44,7.25ZM1161.18,315.46q-6.7,1.84-12.38-4.89c5.79-4.13,10.09,1.42,15.06,2.32.56,2.4.3,3.91-2.68,2.57Z"></path><path class="cls-1" d="M1112.52,424.7c1.07-.67,2.12-1.38,3.19-2.04h-3.89c.29.59.53,1.24.68,2.04h.03Z"></path><path class="cls-1" d="M1149.7,422.66h-26.07c.54,2.07-1.5,3.41-3.21,4.5-.81.8-1.54.99-2.19.6-.61-.36-.91-.71-.91-1.04-1.52-.68-3.05-1.35-4.64-2.02-.05,0-.1,0-.13,0h.07c-3.16.34-6.36.51-9.49,1.06-2.5.43-4.86.67-4.8-2.68,0-.16.09-.27.11-.42h-43.74l-.73,1.94c9.96,6.95,9.25,7.3,6.39,17.57-1.57,5.62-3.76,4.09-6.55,2.45-3.3-1.94-4.64-5.05-4.07-8.83l-15.8,41.73h62.22c-3.26-1.92-3.84-5.85-1.64-10.89,1.96-4.47,4.05-4.29,7.18-1.89,3.81,2.91,5.52,8.65,11.72,8.46,1.93-.06,3.12,1.89,2.65,3.99-.04.16-.12.21-.17.34h13.05l20.78-54.86ZM1081.08,446.08c-1.07-2.39-.65-4.66,2.34-5.14,4.25-.68,3.81-6.05,9.02-7.74.32,5.14.45,9.62-1.82,13.66-1.08,1.93-2.84,3.82-5.23,3.87-2.81.07-3.43-2.68-4.31-4.66Z"></path><path class="cls-1" d="M1020.31,92.03c.05.54.09,1.08.14,1.61.07-.55.03-1.1-.14-1.62h0Z"></path><path class="cls-1" d="M958.62,124.16c5.19.07,11.34,1.82,12.46-3.37,2.69-12.4,22.3-16.73,15.14-33-6.42,14.44-14.52,27.48-27.6,36.37Z"></path><path class="cls-1" d="M1024.27,93.56c-1.09.47-2.54.09-3.83.08-.59,7.91,6.3,3.81,9.21,4.7l-2.3-6.07c-.7.76-2.18.89-3.09,1.29Z"></path><path class="cls-1" d="M943.18,120.87l1.54,4.05c3.12-1.06,5.52-3.18,6.21-6.72.81-4.1,3.42-6.39,5.66-9.17,7.18-8.97,14.33-17.84,17.09-29.52.57-2.4,1.49-4.44,2.75-6.07h-19.72c-2.91,2.79-7.18.06-10.24,1.68-.77,6.22,5.6,1.18,6.33,5.67-3,2.43-4,8.41-10.98,6.36-10.33-3.03-12.62-4.96-13.68-13.71h-2.93l13.75,36.31c3.84-2.28,8.34-3.68,12.11-6.35-5.17,4.8-5.7,11.56-7.9,17.48Z"></path><path class="cls-1" d="M1026.11,104.92c-8.08,6.22-8.45,7.77-3.2,16.71,1.61,2.75,5.07,6.15,2.46,8.49-3.58,3.21-3.34,8.41-6.82,10.91-1.98,1.42-4.8-2.76-8.1-.43,2.38,3.52,4.76,7.07,7.58,11.23-11.59,6.12-21.2,3.86-32.27-6.88,3.47,12.77-7.03,13.03-10.32,19.02-.41.74-2.72,1.21-3.62.76-4.91-2.45-8.91-2.39-12.41-1.03l11.8,31.15c3.37.39,6.95-.63,10.05.99-.25.91-.53,1.73-.83,2.51h87.12l-3.39-8.95c-.85-.23-1.71-.47-2.55-.68-2.48-.61-5.31.44-7.96.28-1.96-.12-2.9-1.91-3.43-3.86,1.01-5.03,4.32-7.98,8.79-9.35l-29.29-77.34c.25,3.95-1.85,5.11-3.6,6.45ZM999.3,165.05c2.75,1.23,4.91,1.69,7.39-.03.02.91.18,1.78.48,2.63-1.51,2.89-4.62,2.51-7.01,3.63-2.84,1.33-4.12.73-4.38-2.36-.21-2.63.5-5.22,3.52-3.87ZM974.44,175.66c.44-3.25,2.64-4.42,6.9-4.49-.76,4.01-3.08,5.37-5.69,6.29-.2.07-1.29-1.23-1.21-1.8ZM1005.63,186.12c-5.63,1.68-10.17,1.16-14.78-3.85,7-1.16,11.02.06,14.78,3.85ZM1017.83,175.9c-.05,1.66.76,3.67-1.4,4.57-2.11.89-3.14-.47-3.82-2.24-1.02-2.61-.65-5.21.07-7.81,2.86.74,3.07,4,5.15,5.48ZM1033.46,160.49c2.51.6,5.57.95,6.71,3.99,1.13,3.04-.88,4.38-3.29,4.57-3.41.26-4.87-3.52-7.8-4.48-.02.04-.04.08-.06.11l-.22-.22c.1.02.18.08.28.11,1.05-1.86,1.41-4.8,4.39-4.09Z"></path><path class="cls-1" d="M1021.34,85.28c-.53,2.2-.7,4.49-1.04,6.73,1.02-.82,1.89-1.93,3.05-2.41.84-.36,1.88-.74,2.76-.61l-5.89-15.56h-4.82c-.97,2.09-1.74,4.29-1.71,6.81,3.96-.41,9.73-3.59,7.65,5.04Z"></path><path class="cls-1" d="M1010.77,48.48l-1.56-4.14c.25,1.46.51,2.86.89,4.14h.68Z"></path><path class="cls-1" d="M997.47,48.48c1.69-2.07,6.58-5.26,10.17-8.27l-15.23-40.21h-95.01l18.36,48.48h81.71Z"></path><path class="cls-1" d="M1040.46,308.25c-6.04-2.2-10.31,2.51-16.48,2.46-1.55-5.57,6.61-10.18,2.42-15.76-.14-.03-.29-.07-.43-.09,0,0,0,.02,0,.02-.03-.06-.06-.11-.08-.17-2.57,2.26-5.5,4.24-7.57,6.9-3.36,4.34-5.82,1.88-8.56-.43-3.25.73-2.43,3.52-2.82,5.69-.7.87-1.31,1.11-1.79.69-.44-.37-.66-.73-.66-1.11-1.24-2.43-4.38-4.69.3-7.2,2.08-1.11,3.41-3.63,5.07-5.51,1.23-.59,2.77-.89,3.64-1.82,5.89-6.29,9.56-3.67,12.4,2.78.07-.06.14-.11.21-.18.12.14.2.29.3.43,1.69.33,3.62,1.15,4.84.54,5.88-2.97,10.36-3.41,12.36,4.45.62,2.37,2.35,4.07,5.12,2.86,2.09-.92,4.13-2.11,4.67-4.66.71-3.39-.61-5.39-4.12-5.49-3.54-.1-6.15-1.16-6.43-5.14-.03.02-.03.05-.05.07,0,0,.02-.36.02-.35-2.35.87-4.05,5.05-6.89,2.52-2.67-2.38,1.6-3.42,2.07-5.22.46-1.77.64-3.7,1.08-5.37h-16.03c0,.41,0,.82.04,1.23-1.98.54-3.53-.21-4.95-1.23h-9.04c-.3.91-.62,1.83-1,2.71-1.4,3.27-1.72,7.91-6.63,7.62-4.13-.25-3.8-3.98-4.82-7.09-.38-1.17-.95-2.23-1.63-3.24h-22.48l-44.9,118.56h63.45c.18-.14.36-.29.53-.43,1.71-1.4,3.31-3.09,5.99-3.05.53,1.37.62,2.48.54,3.47h24.5l.74-1.95c-.15-.8.12-1.36.64-1.7l33.08-87.36c-5.59.72-11.26,3.51-16.64,1.55ZM951.16,387.57c-.2,2.07-1.54,4.07-3.74,4.89-2.11-.13-3.41-1.38-4.05-3.07-1.14-2.92.75-4.26,3.16-4.41,1.86-.13,5.02-1.02,4.64,2.6ZM1016.02,368.75c-.11.03-.21.07-.31.1-3.07,7.95-3.25,7.93-11.5,11.25,1.76-6.67,5.96-9.65,11.5-11.25.03-.07.05-.12.08-.2l.23.11ZM975.61,341.49c-.75,1.55-1.6,3.3-3.61,3.47-.27.03-.67-1.42-1.02-2.18.31-2.01,1.66-3.48,3.32-3.85,1.57-.35,1.87,1.39,1.3,2.56ZM984.18,315.04c-3.39,4.68-8.1,3.64-10.12,7.27-.89,1.61-3.2,1.94-4.51.02-1.52-2.21-.98-4.51,1.15-6.03,3.7-2.65,7.79-1.62,13.49-1.26Z"></path><path class="cls-1" d="M1060.82,296.87l3.48-9.2c-1.15.06-2.27.46-3.3,1.65-2.3,2.64-1.41,5.18-.18,7.55Z"></path><path class="cls-1" d="M921.31,436.98c-2.97-.81-5.67-.82-8.29-.7l-4.2,11.09c1.65-1.09,3.33-2.17,5.04-3.19,2.32-1.37,4.62-.55,5.65,1.82,1.62,3.73-2.09,2.88-3.65,3.7-2.36,1.24-2.44,3.36-2.6,5.51.02.01.05.02.07.03l-.1.29c0-.11.02-.21.02-.32-1.93-1.32-4.61-.4-6.96-1.2l-4.71,12.45c.24-.07.43-.18.67-.24,1.65,4.18-.91,5.36-3.14,6.75l-1.72,4.54h26.45c-.29-.48-.57-.96-.81-1.45-1.02-2.05.88-3.1,2.59-3.89,2.73.27,5.41.93,6.14,4.04.11.45.09.88.02,1.3h60.61l20.78-54.86h-27.04c-.42.96-.91,1.9-1.38,2.8-1.12,2.13-1.59,4.06-.93,6.52,1.96,7.34-1.37,16.65-7.33,20.8-.55.39-1.71-.09-2.59-.17-3.76,1.14-7.14-3.86-11.03-.68-3.06,1.89-6.2,3.54-9.95,3.92-2.18-5.64,5.29-4.35,5.19-6.07.78-4.44-.72-5.28-2.63-5.57-10.2-1.57-3.87-8.52-3.56-12.76.47-6.52,7.64-5.29,9.34-3.41,4.88,5.36,8.15,2.38,11.07-.98,1.57-1.8,1.49-3.17.77-4.37h-35.18s-.02.04-.03.06c-.45,1.1-1.41,2.99-1.85,2.91-1.61-.28-2.59-1.45-2.65-2.97h-15.25l-2.19,5.79c2.44,1.78,4.41,4.33,5.32,8.53ZM947.06,425.48c2.8,1.87.1,3.89-.08,5.9-.42,4.62-8.78,6.76-3.79,13.04,1.25,1.58-.91,2.14-1.98,2.59-4.61,1.93-9.26,3.87-15.7,1.02,8.82-4.61,10.53-13.82,16.11-20.23,1.43-1.65,2.77-4.1,5.44-2.31Z"></path><polygon class="cls-1" points="874.26 48.48 855.9 0 760.89 0 779.25 48.48 874.26 48.48"></polygon><path class="cls-1" d="M894.58,196.43c-2.14.74-3.71.72-4.18-1.56-.22-1.11.82-3.57,1.17-3.55,5.12.36,5.26-5.29,8.52-7.03,3.14-9.7,8.87-17.46,16.62-23.7l-33.01-87.16h-.83c.01.13.04.24.05.38-.3,1.5-.09,3.65-2.69,3.36-1.37-.15-2.52-1.06-2.54-2.59,0-.42.07-.79.17-1.15h-39.83c.57.47,1.07,1.05,1.27,1.63,2.11,6.14-.27,11.53-3.19,16.77.5,1.28,1.53,2.61,1.39,3.82-1.39,13.07-8.57,23.85-12.25,36.88-5.4-4.46-.99-7.15-1.42-10.16-3.39-3.91-7.49.73-12.6-.72,8.91-8.26,18.21-14.7,24.69-23.95-6.92-7.18-1.92-15.62-2.35-23.48-.02-.34.09-.56.19-.8h-11.28c-1.36,2.5-3.27,4.03-6.09,1.99-1.2-.87-2.39-1.5-3.57-1.99h-8.86c-1.29.58-2.56,1.41-3.81,2.51-5.35,4.72-7.34.47-10.39-2.51h-1.08l36.45,96.27c.21-.04.43-.09.61-.09,3.15-.4,4.57.9,4.34,3.66-.1,1.12-.23,2.84-2.27,2.34-.17-.04-.33-.11-.5-.15l8.67,22.9h68.2c-1.04-9.55-6.11-3.14-9.62-1.93ZM808.71,88.88c-.5-3.72-2.96-9.59,3.1-9.59,4.57,0,8.14,4.42,7.21,10.27.09-.03.17-.08.27-.1l-.29.28s.29-.28.29-.29c.02.07,0,.16.02.24,2.02-.3,4.38-1.17,4.63,2.23.11,1.46-1.13,2.66-2.55,2.59-3.66-.21-1.89-2.98-2.08-4.82-.1.02-.21.04-.31.05.01-.06,0-.12.02-.18-3.82,1.02-4.95,6.54-10.02,5.92-4.09-1.71.02-4.38-.28-6.6ZM896.57,152.66c-.21,2.76-1.81,4.11-4.46,4.21-1.49.06-2.73-.36-2.54-2.5.64-2.89,2.83-4.65,5.65-4.98,1.22-.14,1.45,1.92,1.34,3.27ZM898.35,133.11c.96,3.2-1.66,3.91-3.81,4.02-3.73.2-7.82,1.88-12.46-2.81,4.29-2.2,7.18-4.13,10.36-5.21,3.15-1.07,5.09,1.23,5.91,4ZM899.91,122.39c.34.51.08,2.09-.38,2.37-4.46,2.73-5.86-2.46-10.45-2.73,5-2.84,8.27-3.46,10.82.36ZM852.48,139.6c-2.98.37-6.52,1.87-7.84-2.41-.92-2.95.81-4.39,3.57-6,5.93-3.44,7.59-12.02,15.23-13.72,0-.11.01-.22.02-.33.02,0,.04,0,.05-.01-5.62-5.64-5.5-5.75,4.25-11.23-.07-3.11-2.48-1.75-3.72-1.67-6.57.41-8.84-2.44-7.88-8.98.43-2.91-.34-6.01-.65-9.04-.12-.03-.25-.05-.37-.09l.31-.38s-.31.38-.32.39c0-.06-.01-.09,0-.15-1.02.76-2.34,1.41-2.69,2.41-1.19,3.37-3.55,4.02-6.42,3.21-3.7-1.04-2.77-3.99-2.32-6.73.44-2.68.64-5.41,1.22-10.41,2.78,6.05,10.88,3.87,10.21,11.5.11-.08.23-.16.32-.24.02.16.04.31.06.47,3.98.93,10.4-2.56,10.25,5.98-.02,1.2.96,2.58,1.79,3.6,8.87,10.86,8.87,11.5-1.59,20.46-.62.53-1.61.61-2.43.89.09.09.14.15.23.24l-.29-.23s.29.23.29.23c-.11.02-.19.07-.3.1-.07,1.77-.14,3.55-.23,5.32-6.76,1.35-5.8,8.8-9.54,12.54,3.33-1.57,6.54-3.67,10.1-4.38-2.24-2.68-2.18-5.41,2.3-8.23,4.81-3.19,9.14-7.39,15.8-5.98,3.59.76,4.3,2.55,3.25,5.7l-13.26,11.73c.12,3.81-2.84,6.02-4.53,8.89,2.77.46,8.75-2.46,5.52,4.61-1.6,3.5-3.66,7.39-8.78,8.43-1.23-3.63-2.44-7.23-3.64-10.84-3.84-.19-5.63-3.3-7.96-5.66ZM851.54,147.3c3.54,6.07,4.25,11.18-2.92,16.75-2.34-7.04-1.8-12.05,2.92-16.75Z"></path><path class="cls-1" d="M911.12,195.24c.32.97,1.36,2.09,1.8,3.12h18.11l-5.08-13.4c-4.54,1.41-8.16,5.3-13.13,5.8-1.87.18-2.37,2.39-1.7,4.48Z"></path><path class="cls-1" d="M862.68,305.62l.62.85c.07-.04.14-.08.21-.12.03-.08.07-.15.1-.23l-.93-.49Z"></path><path class="cls-1" d="M915.86,280.88c-3.38,1.07-5.91,1.46-8.45-1.73h-24.23c-.03.86-.06,1.71-.1,2.57,3.66,9.06-9.73,6.99-9.01,14.13-1.09,6.02-6.25,7.82-10.56,10.5-1.73,4.83-5.23,6.32-10.27,6.88-3.95.44-8.21-1.63-11.91,1.13-3.14,2.34-7.25,4.71-8.31-.87-.77-4.05-4.54-10.84,2.81-12.87,8.12-2.25,12.32-6.85,13.2-15.16.24-2.34,1.97-3.72,4.61-4.25,1.8-.36,3.37-1.14,4.87-2.06h-10.65c-2.2,3.23-4.47,6.4-6.73,9.59-1.71,2.44-4.11,1.36-6.26,1.07-1.84-.26-2.25-.96-2.2-1.83l-41.55,109.74h18.66c3.02-5.87,8-7.52,10.33-3.26.64,1.16,1.45,2.18,2.19,3.26h53.29c.38-.62.93-1.07,1.8-1.17,5.54-4.29,7.56-5.81,10.56-3.66l42.04-111.01c-2.85-.16-5.8-.61-8.95-1.62-1.98-.64-3.43.06-5.18.62ZM886.3,305.48c-4.54,5.79-7.93,7.88-13.4,0h13.4ZM893.82,290.04c-2.9.33-6.19,1.43-7.59-2.46-.94-2.61,1.82-3.49,2.96-5.12,3.82-.36,7.65-.73,11.79-1.11-.09,5.39-5.56,5.38-7.16,8.7Z"></path><path class="cls-1" d="M876.68,422.66h-95.02l-20.78,54.86h60.03c2.71-1.83,4.74-5.12,8.96-3.96.06,1.39-.02,2.7-.14,3.96h26.17l20.78-54.86ZM770.61,473.68c-4.05-14.27,5.27-24.37,11.02-38.58,9.07,18.82-7.53,26.66-11.02,38.58Z"></path><path class="cls-1" d="M673.2,80.32c1.42-1.55-.42-4.23-2.8-5.25-.71-.54-1.3-1.09-1.77-1.64h-16.45l8.52,22.52c5.52-3.92,8.01-10.73,12.49-15.62Z"></path><path class="cls-1" d="M794.51,198.36l-.81-2.14c-3,.15-5.76,1.03-8.43,2.14h9.24Z"></path><path class="cls-1" d="M688.19,75.62c3.78.05,7.2.52,9.14,4.51,5.77,11.85,2.73,27.7-7.26,37.46-2.94.95-3.67-.34-3.03-3.03,8.98-3.89.21-12.57,4.66-17.68-8.49-4.36-5.81-15.91-13.18-20.99-.81.15-1.62.13-2.42-.07-1.32,6.65,1.3,14.74-6.88,18.95-.64.33-.98,2.84-.43,3.61,1.18,1.68,2.66.57,4.41,0,7.98-2.66,4.05,2,2.77,4.96-4.08,1.68-8.08,3.09-11.52,2.46l35.06,92.57h56.62c4.36-3.15,10.5-2.5,13.23-7.31,3.18-5.56,6.49-11.12,12.88-13.57,3.02,3.2.4,5.33-.56,7.67-1.97,4.83.23,7.09,4.82,7.37,1.79.11,3.73-.47,5.64-.41l-12.32-32.55c-.84.3-1.77.56-2.92.73.69-1.43,1.16-2.83,1.63-4.13l-31.33-82.73h-20.62c-1.34,1.23-2.93,2.01-4.83,1.93-4.8-.22-7.82,3.46-15.02,5.31,2.35-2.67,4.39-5.02,6.34-7.24h-28.51c.36,1.3,1.39,2.16,3.63,2.19ZM751,183.89c.91,2.4,1.18,4.74-.56,6.91-1.25-.33-2.49-.75-3.75-.98-2.11-.39-4.79-.45-4.58-3.39.21-2.93,3.18-2.21,5.07-2.67,1.19-.29,2.54.06,3.83.12ZM729.95,108.05q-7.37.39-12.16-5.66,6.94-.65,12.16,5.66Z"></path><path class="cls-1" d="M642.59,47.82c.86.03,1.45.3,1.91.66h55.63c.18-.16.36-.27.53-.44.01.15.02.29.03.44h37.07L719.39,0h-95.02l18.12,47.84s.06,0,.09-.02Z"></path><path class="cls-1" d="M731.07,318.02c-.78.59-.99,1.47-1.18,2.37.39-.79.79-1.58,1.18-2.37Z"></path><path class="cls-1" d="M732.76,279.15c-1.16,3.57-.83,7.43-1.54,10.96-.57,2.82-3.23,7.72-7.56,5.73-3.58-1.64-6.22-4.85-2.96-10.06,1.53-2.43,2.75-4.98,4.66-6.64h-25.86l-44.9,118.56h13.4c.76-1.94,2.56-3.64,3.4-5.52,1.82-4.16,4.91-2.9,7.97-1.54,2.09.93,4.25,1.69,6.85,2.72,5.91-9.85,11.91-20,25.6-19.58,2.39-2.03,5.61-1.59,8.27-2.81,1.88.77,3.24,2.25,2.54,4.2-2.63,7.32-3.72,14.8-3.19,22.54h15.47c1.43-1.56,2.82-3.1,4.34-4.52,2.76-.65,4.05.2,3.21,3.21-.07.46-.14.87-.22,1.31h7.37l44.9-118.56h-61.75ZM710.34,321.92c.05-1.8,1.86-3.06,3.74-3.13,2.68-.09,3.95,1.91,4.37,4.18.36,2.01-.95,3.24-3,3.68-2.7-.43-5.19-1.52-5.11-4.73ZM749.28,335.91c3.54-2.3,6.85-4.45,10.54-6.84q-2.79,11.08-10.54,6.84ZM750.56,315.57c.18,2.24.81,4.83-2.52,5.29-3.38.46-6.69-.02-7.75-3.85-1.27-4.5,2.9-4.95,5.45-6.5,3.85-.46,4.61,2.07,4.82,5.06ZM727.27,304.95c1.77,1.64,5.08,7.94,3.8,13.07-1.82,5.02,4.18,8.61,2.5,13.6.06-.01.12-.03.19-.04h.01s0,0,0,0h.01l-.02.02c-.03.09-.07.15-.09.24,3,0,4.76,1.99,6.53,4.2-3.48,2.03-6.86,4.16-10.4,6.01-1.64.85-3.61,1.08-4.73-1.02-1-1.86-.25-3.53.96-5.02,1.97-2.41,6.49-.28,7.64-4.17-.05,0-.09-.02-.13-.02h0s0,0,0,0h0c.02-.07.02-.13.04-.2-1.2.23-2.39.54-3.6.66-2.03.21-4.45,1.15-5.66-1.27-.92-1.85,1.1-3.05,1.93-4.48.64-1.11,1.45-2.11,2.18-3.16-1.33-.07-3.82.04-3.86-.22-.93-6.51-5.82-9.15-11.24-10.95.66-1.2.94-1.96,1.11-1.93,5.62.76,7.53-10.21,12.83-5.31ZM749.73,290.49c-.71,2.42-1.13,5.62-4.71,5.34-1.71-.14-3.51-.99-3.45-3.32.09-3.21,1.68-4.95,5.16-4.89,1.42.35,3.79.15,3,2.87Z"></path><path class="cls-1" d="M707.64,468.87c1.73-.94,3.4.41,4.24,2.3,3.76,1.31,6.09-.34,7.75-3.66,1.13-2.26,2.7-3.66,4.68-2.97l15.86-41.88h-95.01l-14.82,39.12c.73.93,1.04,2.23,1.09,3.74.05,1.33-.16,2.82-1.9,2.87-.57.01-1.11-.07-1.64-.16l-3.52,9.29h22.3c-1.71-1.75-3.37-3.54-4.64-5.62-.28-2.84.95-4.02,3.73-3.5,6.29-.96,8.52,4.04,11.49,7.96.24.38.5.77.76,1.16h47.47c.01-.13,0-.25.03-.39-1.46-3.34-1.21-6.46,2.12-8.26ZM638.5,442.47c.34-2.15,2.48-2.22,4.22-2.53,1.54.14,2.81,1,2.1,2.48-.71,1.5-2.11,3.45-3.43,3.66-1.73.27-3.19-1.7-2.89-3.62ZM672.71,472.63c-2.87-1.66-2.45-4.18-1.8-6.78.89-.01,1.79-.09,2.69-.22,2.87,1.67,2.68,4.01,1.35,6.54-.51.95-1.28,1-2.23.46ZM686.28,465.69c3.08-4.54,3.66-.32,4.32,2.14.34,1.26.71,2.51,1.63,5.73-4-2.82-8.63-3.93-5.95-7.87Z"></path><path class="cls-1" d="M616.78,198.36c.79-.89,2.53-1.53,3.84-1.91,1.26-.37,2.32.32,2.25,1.91h35.14l-47.31-124.93h-95.01l37.23,98.3c1.54-.26,3.02.12,4.39,1.33,1.49,3.34,2.9,6.73,4.48,10.02,1.29,2.69,2.23,5.43-1.45,6.6-.17.05-.37.11-.55.16l3.23,8.52h53.79ZM606.14,88.18c-4.35,2.51-7.67,4.9-12.01,3.34-1.85-.67-3.08-2-3.18-3.9-.16-2.67,1.59-4.11,4.02-4.37,4.25-.45,7.87.95,11.16,4.93ZM569.12,76.73c-.29-.56,1.36-3.12,1.92-3.06,5.87.59,10.76,3.57,15.27,7.2.5.4.72,1.87.39,2.43-.64,1.07-1.78,1.83-3.11,3.1-4.57-3.89-11.37-3.84-14.47-9.66ZM580.96,121.01c-4.99-4.07-10.32-7.74-15.32-11.82.03.07.04.16.07.23l-.19-.32s.08.06.12.09c-.26-.77-.5-1.56-.67-2.37-.55-3.54-1.24-7.02-4.32-9.35-1.54-2.76-3.08-5.51-5.06-9.04,7.87-4.5,15.68-1.54,19.96,3.11,7.39,7.99,15.91,11.66,25.87,13.64.72.14,1.25,1.28,2.22,2.3-1.71,5.68-8.72,6.91-11.14,12.87-1.91,4.73-7.24,4.15-11.54.66ZM631.98,167.73c.57-10.13-8.98-6.26-13.82-8.98-4.82-4.94-4.07-8.6,2.45-10.96-1.16-7.68,2.29-12.2,10.88-14.59,3.99,15.91,15.79,29.35,13.09,48.95-5.22-4.71-13.14-4.65-12.59-14.42ZM568.09,186.39c6.23-10,11.29-12.22,19.55-9.61,1.11.35,2.67,1.68,2.71,2.62.13,2.63-1.57,2.52-3.43,1.52-1.66-.87-4.16-1.37-4.23.94-.51,16.51-9.58,3.49-14.6,4.53Z"></path><polygon class="cls-1" points="601.24 48.48 582.87 0 487.86 0 506.22 48.48 601.24 48.48"></polygon><path class="cls-1" d="M603.17,283.66c-1.26.73-4.54.49-4.9-.26-.73-1.56-.73-2.9-.32-4.25h-34.96l-33.75,89.12c-.16,1.62-.76,3.2-1.57,4.61-1.68,2.95-1.8,8.6-4.02,10.15l-5.56,14.67h25.64c4.59-3.33,6.97-8.54,10.73-12.54,1.95-2.07,3.76-2.15,5.84-.42,1.78,3.3-1.3,4.24-2.82,5.94-2.02,2.34-4.03,4.69-6.05,7.02h47.15c-.52-1.05-1.43-2.11-2.5-3.29-1.57-1.74-1.48-5.23-1.62-7.95-.06-1.11.98-2.84,1.99-3.32,1.84-.89,3.71.14,4.55,1.91,1.92,4.09,3.39,8.29,4.64,12.66h7.48l38.33-101.22c-.2-3.13.07-6.19,2.93-8.4.07-.05.18-.05.28-.06l3.36-8.88h-52.17c.27,1.7-.3,3.14-2.65,4.51ZM590.79,394.34c1.47,2.18-1.52,4.03-4.43,2.71-.85-.38-1.74-.64-2.53-1.09-.33-.2-.46-.76-.77-1.33,2.52-1.96,5.05-4.25,7.73-.29ZM541.45,385.53c-.98-.25-1.97-.52-2.95-.78-.11-.43-.35-.87-.31-1.3.25-3.2-1.95-7.49,3.03-8.68,1.25-.29,3.8,1.14,4.34,2.39,1.71,4.05-.82,6.54-4.11,8.37ZM578.68,375.12c-.05,2.01-1.45,3.37-3.34,3.43-1.89.05-3.68-1.39-3.57-3.19.16-2.15,2.52-2,2.37-1.98,3.41-.5,4.57.15,4.54,1.75ZM616.5,354.32c-.03,1.97-1.1,3.85-3.16,3.53-4.96-.77-4.24-5.23-4.42-8.57-.11-1.9,1.94-2.87,4.48-2.57,3.9.98,3.14,4.53,3.1,7.61ZM568.66,340.8c3.39,2.08,2.35,7.8,2.95,11.91.28,1.95-2.2,3.02-4.02,2.21-3.25-1.44-6.11-3.86-9.93-3.76,0,.02,0,.05-.01.07l-.08-.08s.06.01.09.01c.38-1.77.37-3.81,1.29-5.21,2.28-3.46,5.85-7.51,9.71-5.15ZM597.62,317.06c-.03.33-1.74,1.02-2.25.74-2.99-1.66-4.3-4.06-2.57-7.56,3.87.87,5.07,3.42,4.82,6.82Z"></path><path class="cls-1" d="M514.3,476.95c.62.14,1.16.34,1.65.57h66.93l1.63-4.31c-1.35.79-2.77,1.46-4.33,1.93-7.15,2.14-7,2.68-10.98-3.32-3.13,3.8-8.85.81-11.96,4.64-2.27.58-4.36.65-5.58-1.91-5.66-.4-11.33-.8-16.98-1.21-.28-3.69,3.04-4.78,3.64-7.35.25-.62.5-1.25.74-1.86,1.26-1.16,2.61-1.98,4-2.62-1.36-.03-2.71-.04-4.07-.14-1.27-.13-2.45-.48-3.61-1.03-5.48-1.86-2.98-7.86-5.66-11.18-1.12-2.11,3.7-6.36-.71-6.34-12.41.04-6.15-5.39-2.79-9.92-4.41-4.72-12.54,2.55-15.55-5.94-.41-1.16-2.72.82-4.75,2.87l-13.57,35.81c1.12.63,2.34,1.08,3.82,1.06-1.82,3.12-3.9,4-5.95,4.57l-1.59,4.19c-.03.71-.11,1.39-.22,2.05h21.56c1.2-.8,3.05-.86,4.32-.57Z"></path><path class="cls-1" d="M556.17,465.32c.07-.07.16-.15.23-.22-.61-2.39-.45-4.78-.07-7.17-.68.86-1.38,1.7-2.23,2.43-.64.29-1.3.52-1.98.7,1.11.72,2.02,1.63,2.71,2.79.07.32.14.63.22.94.39.09.77.25,1.13.54Z"></path><path class="cls-1" d="M565.63,435.12c.97,1.5,1.37,3.04,1.25,4.6,3.23-.7,6.43-.84,9.5,1.65,1.41,7.64,5.74,10.89,13.57,10.02.97-.11,1.94-.17,2.9-.2l1.96-5.19c-4.85-2.06-9.48-3.77-13.09-6.65-.12-2.99,1.16-3.64,2.45-3.97,9.64-2.46,11.09-2.74,13.27,3.69l6.22-16.42h-44.57c-2.83,9.34-2.78,9.45,6.54,12.46Z"></path><path class="cls-1" d="M527.4,422.89c.07-.07.14-.16.2-.23h-8.5c2.3,5.27,5.55,3.21,8.3.23Z"></path><path class="cls-1" d="M401.91,48.48c.21-2.04-.34-4.75-1.29-9.23,2.58-2.43,5.14-2.29,7.69.07.32,2.74,1.36,5.62.82,8.18-.07.33-.15.66-.23.98h55.83L446.37,0h-95.02l18.36,48.48h32.2Z"></path><path class="cls-1" d="M383.1,78.99c-.81-.05-1.51-.37-2.14-.79l39.51,104.31c6.79,5.78,13.96,1.71,22.18-1.78-4.71,5.82-12.37,8.91-19.37,9.17l3.2,8.45h61.57c-1.6-2.32.25-5.21,1.57-7.14,2.66-3.91,6.87-5.95,11.89-3.64-3.05,3.6-6.09,7.19-9.14,10.78h10.12c-1.31-1.74.39-4.11,2.87-6.65,4.7,1.45,4.31,3.95,2.95,6.65h13.2l-.21-.55c-3.16-.76-5.6-3.67-8.19-7.82,1.66-.5,3.3-.73,4.91-.85l-11.93-31.49c-3.03,2.61-5.31,4.39-.23,9.81,3.53,3.78-7.82,7.01-6.02,14.52-3.82-2.67-5.8-7.78-10.87-5.78.29,2.55,3.7,5.27,1,7.38-2.97,2.33-6.88.7-8.04-2.55-7.2-20.14-22.97-17.96-38.87-15.81-1.79.24-3.65.1-5.46-.07-2.54-.24-6.04,1.13-6.94-2.61-.88-3.58,3.64-1.76,4.39-3.65,1.15-2.92,4.12-6.34-2.83-6.9-2.5-.2-4.63-5.11-6.88-7.82,3.01-3.98,5.63,2.28,9.22-.81-2.52-5.86.8-12.71.32-18.19-.95-10.82,8.75-8.11,12.14-13.11,0,1.77-.38,3.65.09,5.29.87,3.12,1.99,3.37,3.48.63.68-1.24-.8-3.88,2.27-3.37,1.38.23,1.98,1.56,2.14,3.07.76,7.65-1.85,15.43.62,23.13q7.4-4.24,18.37-1.7c2-2.41,4.47-4.53,6.68-6.53,3.11-2.8,6.94-.99,8.79,3.12,1.8,3.98-1.7,4.9-3.96,5.7-2.52.87-5.39.7-8.12.98-.53,4.46,2.11,5.27,5.77,5.62,7.19.7,14.47,1.15,21,4.96.06.04.14.08.21.12l-30.17-79.66h-39.5c-1.42.57-3.22,1.01-4.3,1.71-.87.27-1.73.21-2.57-.18-1.75-.2-3.12-.77-4.31-1.53h-28.33c-1.36,2.99-7.22,5.85-12.07,5.56ZM431.3,177.63c-.54,4.52-3.92,1.8-6.26,1.25-.87-.21-1.77-.26-2.66-.39.85-1.82,1.7-3.65,2.55-5.47,5.32-2.97,6.8.89,6.36,4.62ZM447.04,92.26c4.66,1.25,3.77,5.67,4.67,9.04.57,2.13,2.21,4.19.57,6.53-2.68.65-4.37-.93-5.63-2.89-2.09-3.21-6.62-5.79-2.87-10.72.92-1.2,1.93-2.3,3.27-1.95ZM463.55,83.45c2.64,1.67,2.28,5.89-.9,8.22-1.7,1.25-3.15.29-4.49-1.37-6.51-8-5.97-6.62-14.73-2.67-7.68,3.46-6.63,9.11-7.21,16.65-7.58-2.12-15.22-2.46-7.31-12.05,1.07-1.3-.74-5.04-1.5-9.23,11.66,4.75,19.34-5.05,29.71-6.1,7.62-.77,3.81,4.87,6.43,6.55Z"></path><path class="cls-1" d="M379.16,73.43l.02.06s0-.04,0-.06h-.03Z"></path><path class="cls-1" d="M488.8,176.25c.05-.02.1-.02.16-.04,0-.03-.02-.05-.02-.08l-.14.12Z"></path><path class="cls-1" d="M396.51,391.55c-6.97-3.84-7.69,2.88-10.41,6.16h6.32c.96-2.2,4.58-2.77,4.08-6.16Z"></path><path class="cls-1" d="M402.02,360.62c2.43-7.96,5.21-8.96,8.87-2.81,3.69,6.21,11.81,11.82,4.39,21.62-2.6,3.44,3.41,6.85,7.58,6.54,5.15-.39,9.88-.96,12.97,4.24.12-.04.23-.08.37-.11l-.25.29s.25-.29.25-.28c.09.15.19.3.28.45,3.45,1.09,6.9,2.18,10.35,3.27.05-.04.1-.06.14-.1,0,0,.31.24.31.24-.15-.05-.3-.09-.46-.14-5.19,4.19-7.84.71-10.35-3.27-.18-.05-.35-.11-.53-.17-.04-.07-.08-.11-.12-.17-4.83,1.32-5.41,4.27-5.26,7.5h30.34c.8-1.13,2.02-1.68,3.55-1.77,3.1-.2,6.19-.45,10.43-.75-.3,1.07-.74,1.86-1.24,2.52h2.93l37.24-98.34c-.86-.77-1.66-1.76-2.37-3.08,1.47-.59,2.77-.93,3.93-1.02l6.11-16.12h-9.23c-1.01.5-1.97.45-2.38,0h-42.24c1.65.1,3.57.62,2.3,2.97-1.18,2.16-3.44,2.74-5.8,1.85-1.24-.47-2.5-1.13-2.09-3.48.36-.84.98-1.17,1.69-1.35h-9.44c.41,1.54-.73,2.29-1.81,2.62-2.11.66-4.53,1.01-5.14-1.99-.04-.17,0-.41.03-.64h-20.91l-24.11,63.66c1.79.06,3.36.88,3.8,2.8.57,2.43-1.25,3.58-3,3.08-1.18-.34-2.15-.23-3.05.06l-6.73,17.79c.97-.34,1.95-.68,2.92-1.02,2.45-.86,4.72-1.64,5.72-4.9ZM423.15,293.31c6.15-4.83,10.39-4.48,14.56-2.54,1.04.48,1.11,2.8-.07,3.54-4.53,2.79-8.13-.74-14.49-.99ZM417.17,337.76c-.41-1.37.16-2.62,2.63-3.3.61-.1,1.71.57,1.77,2.12.03.73-.61,1.79-1.26,2.2-1.25.79-2.68.53-3.14-1.02ZM447.43,342.07c-1.1-.51-2.26-1.45-2.8-2.52-.86-1.72.58-2.12,1.92-2.32,1.96.14,3.45,1,3.44,3.11-.01,1.48-1.19,2.35-2.56,1.73ZM471.56,346.54c4.51.12.71,3.34,1.48,4.87,4.62,9.24,6.61,22.75,4.6,31.11-.48,1.99-1.52,3.24-3.3,4.01-2.82.45-6.95-5.23-4.91-7.55,4.9-5.6,2.51-10.06-.78-14.74-2.89-4.1.55-8.62-1.01-12.97-.55-1.49,1.13-4.79,3.93-4.72ZM412.42,348.01c8.07,4.82,13.1,10.84,21.23,8.27,3.26-1.04,7.09,2.62,6.96,5.31-.32,6.79,5.66,8.69,9.83,15.54-17.89-3.93-28.28-13.7-38.02-29.12Z"></path><path class="cls-1" d="M405.53,396.37c-.93.28-1.57.75-2.03,1.34h3.55c-.2-.63-.63-1.12-1.52-1.34Z"></path><path class="cls-1" d="M437.75,466.2c8.84-3.89,3.44-8.96,1.22-13.86-.24-.55.41-1.52.64-2.29,4.91,2.16,9.79,4.4,14.76,6.33l12.77-33.73h-39.08c4.28,2.64,9.62,3.45,13.57,6.68,1.35,1.8,4.3.7,5.35,3.02.22,5.23,5.08,10.1.96,16.23-5.32-2.19-5.46-7.8-7.77-11.83-4.16-7.24-7.89-7.95-16.81-4.65-4.56,1.69-9.64,2.37-14.14-.86-1.07-.77-1.79-1.78-1.62-3.45.5-4.78,6.23,3.69,5.71-2.3-.11-1.2-1.09-2.02-2.09-2.86h-39.1l-20.78,54.86h11.32c1.35-1.92,2.79-3.74,5.37-2.36,1.23.66,1.8,1.48,2,2.36h63.85c.37-3.88,6.22-6.69,3.86-11.32ZM387.93,455.98c-6.61,1.13-9.53-5.01-13.67-8.04-3.94-2.89,3.68-4.04,3.26-7.32,1.44-2.54,4.36-1.09,6.27-2.36,2.25.17,6.38.03,6.47.55,1.9,12.12,9.37,6.25,15.39,5.12,2.2-.41,4.45-.49,7.52-.82-.6,8.15-8.18,6.81-11.24,10.3-4.34,4.95-9.35,1.79-13.99,2.57ZM383.73,466.4c-.21-2.74,1.62-3.8,3.73-4.59,1.6-.59,2.44.25,2.26,1.77-.25,2.11-.44,4.47-3.29,4.82-1.44.18-2.36-.56-2.71-2Z"></path><path class="cls-1" d="M328.06,48.09L309.84,0h-95.01l18.37,48.48h94.57c.09-.13.2-.27.29-.4Z"></path><path class="cls-1" d="M310.27,198.36c.23-1.33,1.02-2.48,2.2-2.77,3.79-.91,7.75-1.11,11.64-1.61-.96,1.87-2.07,3.23-3.27,4.38h11.96c-.09-8.01,2.52-10.5,11.66-12.59,5.93-1.36,10.16-3.17,10.86-10.65.37-3.94,5.82-5.21,9.63-4.48,3.2.61,2.52,4.05,2.57,6.92.11,5.3-3.16,9.64-3.43,14.75-1.3,2.32-2.5,4.7-4.99,6,0,.02-.02.04-.02.06h25.87l-4.36-11.51c-.34-.48-.67-1.01-.97-1.6.11-.06.2-.11.3-.16l-18.97-50.09c-.62-.27-1.23-.65-1.84-1.2-2.43-3.58-6.28-4.7-10.09-5.64-4.87-1.22-4.82-4.28-3.44-8.06-8.25-1.61-8.29-1.62-10.68,6.61-.85,2.91-3.16,4.39-5.39,5.8-.95.6-2.7.59-3.76.12-1.81-.79-2.57-2.55-1.91-4.58,3.92-12.13,7.14-24.85,22.48-27.5.47-.08.96-.22,1.45-.36l-10.14-26.77h-78.42c.21.82.39,1.7.47,2.73-1.6-.69-2.94-1.75-4.24-2.73h-12.83l3.69,9.75c.08.05.18.1.25.15,2.59,1.73,3.33,4.71,2.37,6.78l6.13,16.18c1.79-2.27,5.11-.16,7.7.63,2.53.78,5.11,1.38,7.67,2.05-.02-.06-.02-.12-.03-.18.04,0,.07,0,.11,0-1.28-1.7-2.54-3.39-3.82-5.08-3.7-.02-7.39-2.78-6.36-5.39,2.14-5.45-4.71-11.18,1.2-15.98,2.46-1.98,4.71-4.2,6.92-6.2.74.2,1.24.21,1.61.44,5.75,3.58,4.41,8.44,2.33,13.41,4.85,1.85,9.02,4.09,6.18,10.55-.45,5.02-1.66,9.25-8.05,8.25.06.08.12.16.18.23-.09-.02-.17-.05-.25-.07.64,3.3-.39,7.89,5.43,7.32,3.96-.39,7.32.25,8.89,4.74-.52,4.02-4.5,2-6.45,3.61-4.88,4.04-8.86,4.98-10.48-3.07-.79-3.85-4.4-4.42-7.49-5.16-.57-.13-1.1-.3-1.61-.5l21.8,57.56c.18,0,.34.02.52.02,4.93,0,5.16,2.65,1.51,5.35l7.39,19.53h20.32ZM282.29,87.33c-1.7-.96-3.23-1.71-2.09-3.88.88-1.67,3.16-3.53,4.26-2.34,6.62,7.19,13.64-1.36,22.39,1.66-8.34,5.55-15.54,9.73-24.57,4.56ZM309.19,117c.01-2.08.02-4.17.03-6.25,1.53.05,3.06.12,4.59.18,3.39-.8,4.32.87,3.86,3.92-2.16,3.36-5.22,3.15-8.48,2.16ZM275.57,149.21c-2.43-3.39-2.79-7.25-1.91-11.61,4.93,1.56,5.42,6.02,7.35,9.22.28.46-.98,2.5-1.9,2.9-.97.43-3.02.21-3.54-.51ZM286.11,150.38c.18-2.31,1.27-2.89,2.6-3.04,2.87-.32,5.5.45,6.6,3.31,1.03,2.7-1.67,2.73-3.13,3.09-3.29.8-4.59-1.83-6.07-3.36ZM303.17,153.68c.02-1.57,1.66-1.75,3.25-1.44,2.23.79,5.83.41,5.17,4.64-.22,1.43-1.73,2.07-3.16,1.95-3.08-.25-5.33-1.78-5.27-5.14ZM346.96,164.87c-.82-3.13,1.78-3.6,3.55-4.55,2.48-.5,3.5.96,3.53,2.9.05,2.25-.41,4.84-2.84,5.55-2.91.84-3.66-1.73-4.23-3.9Z"></path><path class="cls-1" d="M384.97,279.15h-1.03c.1.71.16,1.45.21,2.18l.82-2.18Z"></path><path class="cls-1" d="M288.93,392.5c1.25.59,2.25,2.35.94,3.35-.82.62-1.49,1.25-2.03,1.87h8.29c1.02-2.5,1.91-4.7,2.8-6.91,4.32-1.11,5.82,4.35,9.61,3.05.03,1.55-.13,2.79-.43,3.86h19.91c-1.27-8.59,4.57-9.99,11.61-10.16,1.42.02,2.83.04,4.25.06l13.77-36.37c-.83.82-1.64,1.65-2.37,2.64-1.4,1.89-4.45.6-5.2-2.1-.47-1.67-.8-4.11.05-5.31,3.52-5.02,2.56-7.63-3.14-9.93-3.27-1.33-4.43-6.71-1.37-7.92,11.16-4.43,9.33-16.86,15.71-24.02.78-.87.53-2.65,1.26-3.61,1.36-1.79,3.05-3.81,5.63-2.62,1.94.9,1.54,3.05,1.55,4.89.02,2.55-1.77,4.17-2.87,6.14-.42,1.07-2.23,2.21.14,3.15,1.86.43,3.59.21,5.42-.37l8.35-22.05c-4.04.47-8.18,1.21-12.75-.71.77-5.83,4.17-8.44,8.38-10.25h-76.49c-2.22,1.14-4.19,2.44-4.11,5.39-1.04,1.16-2.26,1.43-3.68.79-1.54-.6-2.98-.69-4.36-.5l-7.51,19.82c10.99-1.79,22.25,2.07,29.36-9.39,2.12-3.43,6.21-2.92,8.75-1.86,7.82,3.28,11.91-.78,15.8-6.55,1.74-2.59,3.25-5.62,7.67-6.73,1.93,7.52-.93,16.52,6.02,23.22-4.25-1.46-8.7-.42-11.69-4.06-5.85-2.1-2.58,3.89-4.56,5.24-.15,10.12-3.1,19.59-7.16,28.65-1.75,3.88-5.85,3.3-8.14.87-6.25-6.6-6.02-6.82-12.19-5.57-1.54,4.05,1.83,4.54,4.14,5.6,5.1,2.33,3.13,4.52-.2,6.23-1.52.78-3.64.29-5.35.8-4.02,1.21-3.74,11.26-8.89,6.8-3.05-2.64-1.81-10.92-1.59-16.62.12-2.87,4.07-5.13,1.86-9.82-7-.28-11.45,5.77-16.61,9.12-3.21,2.1-5.5,3.89-8.3,3.38l-24.15,63.76h36.96c1.4-1.73,2.63-3.53,3.29-5.57.09-.28,2.55-.16,3.63.36ZM350,287.61c-.06-2.41,1.58-3.23,3.44-2.98,2.57.35,3.61,2.34,3.61,4.86-.01,2.26-1.5,3.48-3.39,3.12-2.41-.45-3.53-2.51-3.66-5ZM314.58,354.47c-.63-.5-1.29-.98-1.88-1.53-1.11-1.02-3.87-1.21-2.09-3.75.42-.59,1.52-1.05,2.26-.98,2.6.25,2.17,2.18,1.9,3.97-.12.75-.14,1.52-.2,2.29.06.05.12.09.18.14l-.21.24c.01-.13.02-.25.03-.38ZM301.34,370.59c-.29-2.23-.71-4.45-.85-6.69-.12-1.79.08-3.72,2.01-4.5,1.96-.79,3.32.63,4.64,1.84,2.26,2.06,1.39,3.76-.39,5.6-1.21,1.23-2.14,2.77-3.18,4.16-.7-.38-1.45-.52-2.24-.41ZM256.59,386.1c-.62-2.63,1.48-3.95,3.87-4.27,2.2-.29,4.41-.26,6.18,1.48-.57,3.05-2.25,4.62-5.52,4.38-1.73-.14-4.08.31-4.53-1.59Z"></path><path class="cls-1" d="M281.08,424.56c-3.89,6.21-3.7,6.46,5.89,7.58,1.39-1.66,2.8-3.34,4.22-3.93.34-1.48.54-3.02,2.02-3.97.71-.53,1.43-1.05,2.16-1.58h-13.04c-.43.62-.85,1.26-1.25,1.9Z"></path><path class="cls-1" d="M312.4,422.66c-1.16,1.34-2.38,2.76-3.79,4.4,4.62.84,11.65-.92,9.02,6.87-.97,2.91.5,3.95,3.19,4.64,1.23.32,2.21.99,3.11,1.77l1.86-4.94c-.17-.4-.34-.8-.43-1.3.48-1.08,1.14-1.93,1.91-2.62l3.02-7.96c-.48-.24-.95-.53-1.42-.87h-16.47Z"></path><path class="cls-1" d="M220,477.52h46.04c.41-.14.82-.27,1.3-.31.6-.05,1.04.09,1.4.31h6.05c-1.5-2.09.65-3.19,2.44-3.32,1.12-.09,3.09.53,3.35,1.3.23.66.41,1.36.63,2.03h11.82c.07-.25.09-.48.21-.73,1.24-2.52,3.47-2.68,5.81-2.66,2.61.14,5.3,1.47,7.55,3.4h3.23l9.78-25.82c-6.89-2.45-13.65,5.86-20.54,1.48-1.23-.79-3.34,1.52-3.35,3.53-.06,11.94-8.84,12.21-17.81,13.36-.86-5.04-.79-11.41-9-10.04-1.52.24-2.74-2.52-2.37-4.38.54-2.7,2.85-2.14,4.35-1.27,3.35,1.99,6.14.85,8.8-1.15,1.07-.8,1.96-1.94,2.73-3.07,2.31-3.45-6.32-3.52-2.42-6.54,2.21-1.72,4.82-2.22,4.29-5.73-5.99-3.51-11.74-5.75-16.98,1.46-.85,1.16-3.23,1.18-4.92,1.73-7.15,3.95-5.64,14.08-12.7,18.05-5.44-9.98-4.47-14.43,4.65-21.11.95-4.93,9.14.66,8.95-6.52-.2-6.98,7.33-3.11,9.71-6.34.56-.77,1.07-1.62,1.53-2.5h-38.92l-20.58,54.33c1.86-.3,3.5-.09,4.96.53Z"></path><polygon class="cls-1" points="78.32 0 96.68 48.48 191.7 48.48 173.34 0 78.32 0"></polygon><path class="cls-1" d="M174.45,192.36c2.07-1.54,4.82-3.32,7.04-.12,1.24,1.78,2.2,3.86,3.33,6.13h47.43c.41-1.97,3.03-1.92,3.76-2.87,2.96-.34,4.82.07,5.04,2.29.02.22-.06.37-.07.58h7.49l-18.82-49.7c-1.98,4.16-2.99,10.87-11.07,3.93,3.51-2.69,5.92-5.96,10.38-5.75l-27.8-73.41h-6.52c0,.63.04,1.27.16,1.9.55,2.83-4.3,2.24-6.74,1.73-2.98-.63-5.54-1.95-7.85-3.63h-53.45c-.83,4.13-3.92,5.95-8.71,8.52,1.04-4.37,2.64-6.86,5.16-8.52h-17.06l47.31,124.93h22c-1.76-1.62-4.43-3.46-.99-6ZM214.49,119.66c.37.45.23,1.99-.21,2.38-3.1,2.71-6.57,4.72-10.88,4.23-2.16-.25-4.49-.42-6.02-3.94,1.58-2.38,3.84-2.75,6.04-2.86,3.71-.18,7.54-4.07,11.09.19ZM198.94,106.45c0-.08,0-.17-.02-.25,0,0,.27.26.26.25-.08,0-.16,0-.24,0,.29,3.4.57,6.8.86,10.18-8.93,4.64-10.01-4.25-13.95-8.18,1.19-1.51,2.77-2.22,4.66-2.29,2.75,1.67,5.61.2,8.43.29ZM164.58,88.77c5.62-5.27,12.53-1.26,18.72-3.17-5.31,5.86-12.21,3.59-18.72,3.17ZM151.86,107.84c-.72-5.82,2.62-8.42,9.58-7.85,2.72.41,6.21.78,6.3,3.98.12,4.19-3.29,4.8-6.81,4.28-1.88-.28-3.98-3.08-5.61.28-2.11,4.37-3.17,1.64-3.46-.7ZM165.85,122.57s.02-.06.03-.09l.23.21c-.1-.02-.17-.09-.26-.12-.69,2.58-2.4,4.21-4.71,2.4-2.74-2.13-5.83-4.39-6.22-9.29,6.36-1.99,6.89,5.62,10.93,6.88ZM137.43,132.08c-.09.04-.17.04-.26.09l.02-.02c.04-.11.07-.21.11-.32-1.28-1.1-2.48-2.3-3.86-3.25-2.17-1.5-2.74-3.31-1.48-5.64.21-.38.53-.88.89-.96,3.21-.84,3.01,2.41,4.24,3.84,1.56,1.8.91,3.96.21,6.02.04.04.07.07.11.1,0,.06.02.1.03.16,2.71-1.15,5.41,2.25,7.48.81,9.16-6.35,8.57,2.67,11.15,6.89-6.25-2.61-17.12,6.23-18.62-7.7ZM172.51,148.24c5.64-1.68,11.08.55,14.97-3.43,2.52-.61,3.43.36,2.75,2.87-3.54,4.35-8.28,7.82-10.11,14.22.47-6.2-4.1-9.32-7.61-13.66ZM148.32,169.03c.46-2.38,1.77-3.64,3.58-4.25,1.44-.48,2.8.26,2.9,1.76.12,2.01-1.06,3.65-3.14,3.77-1.1.07-2.27-.84-3.34-1.29Z"></path><path class="cls-1" d="M201.56,397.71h1.99l3.39-8.95c-2.65,2.51-5.45,4.88-5.38,8.95Z"></path><path class="cls-1" d="M194.79,395.44c-2.05,1.05-4.04,1.83-5.94,2.27h6.31c-.03-.72-.13-1.47-.37-2.27Z"></path><path class="cls-1" d="M140.48,327.65c-1.6,1.35-3.73,1.79-4.13,4.81-1.12,8.56-2.07,10.69-7.4,11.36l-7.74,20.44c.45,2.7.38,5.2-2.52,6.66l-10.14,26.79h55.82c.52-2.1,1.5-3.96,4.3-3.11,1.66.5,2.87,1.65,3.71,3.11h10.45c-3.29-.98-5.98-3.83-7.72-9.44,5.62-4.07,12.32-6.2,19.31-6.39,1.55-3.65-4.07-5.46-2.17-7.36,5.6-5.61,4.02-15.07,10.84-19.68,3.25-2.21,10.81,3.11,13.46,8.53l17.53-46.29c-.58-.93-1.12-1.96-1.58-3.18.86.36,1.68.61,2.47.82l6.95-18.36c-.6,1-1.39,2-2.51,3.05-4.84,4.52-7.13,1.63-8.34-3.43-.81-5.62-.16-10.44,6.47-11.93,4,3.77,5.78,6.77,5.39,9.66l5.51-14.55h-74.09c1.87,2.03,4.41,2.7,7.81,3.59-4.75,4.93-8.3,3.04-11.61,1.75-2.39-.94-3.86-3.14-3.39-5.34h-13.73l-5.16,13.62s0,.02,0,.04c.12,0,.21-.04.33-.02l-.3.26s.3-.26.31-.27c.12.14.23.29.36.43,1.91.48,4.04.46,5.39,2.32,1.93,2.66,1.56,5.11-.98,7.05-.96.73-2.72,1.61-3.45,1.2-3.27-1.86-2.43-3.92-.16-6.35,1.25-1.34.29-2.92-.81-4.22-.22-.06-.45-.09-.67-.17,0-.09-.02-.16-.03-.25h-.02l-10.02,26.46c.18.02.36.04.53.05,2.36.08,6.46,4.31,1.71,8.32ZM135.18,373.43c-8.56-2.47-8.96-3.14-5.74-9.23,1.91,3.08,3.82,6.16,5.74,9.23ZM155.17,345.46c2.41,4.35.32,6.81-3.51,8.55-4.62-2.61-6.64-5.32-.37-8.41,1.26-1.09,2.55-1.13,3.88-.14ZM190.33,340.2c.09,2.22-1.14,3.61-3.06,3.9-1.62.24-2.12-1.3-1.84-2.64.41-1.91,1.66-3.29,3.66-3.41.38-.02.83,1.42,1.23,2.14ZM221.37,292.68c2.23-1.97,4.92-3.42,7.42-5.09,1.91,3.35-1.45,5.51-1.83,8.34-1.33,2.11-2.99,3.16-5.21,1.3-1.57-1.31-1.76-3.33-.37-4.55ZM171.4,303.3c.16-3.56,1.7-6.14,5.86-3.43,3.75,5.37,9.56,6.25,15.31,7.25.06-.06.12-.13.19-.19l.26.27s-.26-.27-.26-.27c.11,0,.24.02.36.03,1.27-3.17,2.54-6.34,3.81-9.51,1.46-1.34,2.32.25,3.21.84,2.18,1.44,4.85,2.89,3.62,6.24-.95,2.58-3.66,2.18-5.7,2.54-1.59.28-3.28-.02-4.94-.11-.03.08-.06.16-.1.25-.15-.03-.3-.05-.45-.08-4.32,4.18-7.46,10.04-15.23,10.41-.45-3.93,7.78-8.85-.72-11.66-2.81,1.34-5.4,1.46-5.22-2.57ZM163.27,305.04c.74.77,1.15,2.69.73,3.67-3.02,7.13-7.86,12.68-13.86,17.1-.91-.74-1.8-1.49-2.71-2.24,3.79-5.87,7.52-11.79,11.4-17.6,1.05-1.57,2.82-2.58,4.43-.93Z"></path><path class="cls-1" d="M79.89,473.36l-1.57,4.16h76.39c-.13-1.8.3-3.33,2.27-3.28,1.86.04,4.82-.52,4.8,2.71,0,.21-.09.37-.13.57h11.68l20.77-54.86h-95.01l-15.77,41.65c1.85,1.23,3.88,3.14,5.97,2.94-3.71,1.4-6.81,3.45-9.4,6.11ZM180.73,425.18c.81,2.59-.44,4.58-2.5,5.77-5.22,3-11.62.98-17.37,3.62,2.95-6.63,8.54-9.06,14.59-11,2.39-.78,4.34-1.49,5.29,1.61ZM144.62,423.39c3.61,0,4.14,2.13,3.82,5.43-.8,8.11-5.57,9.45-12.15,8.32-1.68-4.34,3.3-6.34,2.71-10.39-.61-4.26,3.18-3.37,5.62-3.37ZM98.05,443.65c-2.13-3.36,1.42-3.01,2.98-4.03,1.81-1.19,3.5-2.61,6.26-4.7.14,4.98-1.79,6.87-3.66,8.75-1.83,1.83-4.09,2.34-5.58-.01ZM132.1,457.26c-.65-1.81-.16-3.58,1.53-4.3.59-.24,2.16,1.04,2.82,1.96,1.3,1.86.04,3.12-1.41,4.1-1.62.41-2.47-.52-2.93-1.76Z"></path><path class="cls-1" d="M85.84,139.57c-.91.03-1.8-.12-2.7-.19,0,0,0,.02-.02.02l-.02-.03s.03,0,.04,0c.54-.75.93-1.66,1.61-2.18,1.03-.78,1.8-2.34,2.86-3.09l-4.42-11.67c-1.23.66-2.41,1.32-3.45,2.11-3.11,2.34-5.11.6-6.86-1.72-1.59-2.1-1.18-4.43.29-6.38,2.67-3.57,4.36-.83,6.44,1.02.68.6,1.47,1.07,2.28,1.55l-17.26-45.58H0v80.23l16.93,44.7h95.02l-22.16-58.51c-1.24.11-2.69-.32-3.95-.28ZM54.15,93.7c-1.15-2.06-2.39-4.24.1-6.07,2.18-1.6,4.5-.96,5.93,1.14,2.28,3.34,4.21,6.94,6.85,11.39-7,.37-10.46-2.11-12.88-6.46ZM64.89,187.82c.27,1.46-.87,2.24-2.32,2.77-1.2.12-2.3-.49-2.32-1.92-.02-1.5,1.26-2.11,2.55-2,.75.06,1.99.63,2.09,1.14ZM87.37,160.3c-1.38,3.05-.97,7.52-6.17,7.53-3.08,0-5.72-1.27-6.17-4.2-.73-4.79,3.36-8.03,6.45-9.5,2.72-1.29,5.04,2.79,5.89,6.16ZM63.18,151.7c3.02.4,4.15,3.17,3.89,6.06-.16,1.68-.75,3.82-3.21,3.22-2.33-.57-5.62-.13-5.63-3.98.96-2.6,1.66-5.73,4.95-5.3ZM54.64,154.5c.59,4.48-2.6,5.06-5.95,5.05-1.36,0-3.22-1.18-1.98-2.29,1.94-1.73,2.18-5.04,5.32-5.69.91.96,2.47,1.85,2.61,2.93ZM50.8,141.25c-1.93-1.11-4.06-2.25-4.11-5.02l3.41-11.12c.7-.46,1.87-.8,2.02-1.4,1-3.94,5.73-4.18,8.06-10.04,1,6.96,2.14,11.34-1.54,15.39-1.72,1.9-2.39,4.35-2.03,7.52.72,6.27-1.06,7.37-5.82,4.67Z"></path><polygon class="cls-1" points="0 0 0 48.48 55.18 48.48 36.82 0 0 0"></polygon><path class="cls-1" d="M61.23,390.79c3.4-2.21,4.45-4.21,1.4-7.5-1.3-1.39-2.07-4.04-.44-4.89,2.18-1.14,5.19-1.55,7.62-1.08,2.06.39,1.28,2.73.81,4.57-.52,2.06-.35,3.96.24,5.72l4.7-12.43c-.52-.85-.86-1.63-.83-2.19.11-1.68,1.39-2.66,2.81-3.03l16.13-42.6c-.45-4.54-4.36-7.66-5.32-11.99-1.02-1.26-2.9-1.51-3.57-3.16,3.34-9,2.55-19.09,8.36-27.58,4.39-6.43,4.11-7.14,8.69-1.69,1.92,2.28,4.08,4.26,6.34,6.14l3.77-9.94H16.93L0,323.85v73.87h33.57c1.35-2.59,5.73-3.95,4.28-6.46-4.46-7.75,1.21-9,5.69-11.86,2.04-1.3,1.29-7.64,5.97-4.08,3.82,2.9,7.62,6.73,6,12.57-1.41,5.08-4.98,7.66-8.9,9.83h7.89c.29-.4.64-.79,1.05-1.18,1.95-1.87,3.48-4.32,5.68-5.75ZM82.74,349.17c-.25,1.81-.91,2.63-2.55,2.36-1.9-.32-3.08-1.51-4.05-3.07-1.3-2.1.68-2.26,1.64-2.39,2.52-.34,4,1.23,4.97,3.1ZM75.21,307.67c6.7-3.94,4.01,2.82,5.48,4.86.18.04.33,0,.52.07l-.32.24c-.09-.07-.12-.21-.2-.31-4.73-1.03-5.3,6.08-9.59,5.43-2.72-.42-6.98.98-7.25-4.03-.18-3.19,1.2-5.3,4.75-5.13,2.29.11,4.49.12,6.61-1.12ZM46.27,323.54c-2.61-1.69-5.74-5.2-2.93-7.59,2.84-2.41,4.6-9.13,11.07-5.2-.98,3.22-1.71,6.69-3.16,9.8-.81,1.76-2.13,4.83-4.98,2.99ZM53.01,355.04c-1.96-2.1-3.93-4.21-5.9-6.31,1.93-3.43,5.56-3.92,7.75-1.97,2.21,1.96,4,5.88,3.74,8.73-.2,2.13-3.61-.1-5.59-.45Z"></path><polygon class="cls-1" points="0 422.66 0 477.52 36.82 477.52 57.6 422.66 0 422.66"></polygon><path class="cls-1" d="M2036.25,236.77c9.12-.4,17.08,1.44,22.69,13.44-9.14-4.98-16.8-4.43-24.45-3.94-2.59.16-4.55-.14-4.02-3.51-.45-1.74-.65-3.6-1.39-5.21-3.13-6.83-4.06-9-1.82-12.09h-134.26v29.89h132.7c-2.18-1.99-2.36-5.45-4.6-7.57-2.08-1.97.91-2.89,2.3-3.52,1.62-.73,3.8-1.17,4.21,1.43.52,3.21.76,6.49-.29,9.66h93.98v-9.83c-.71.57-1.37,1.24-2.15,1.68-3.71,2.09-6.76,8.02-10.97,5.94-6.05-3-15.54-1.85-16.94-11.97-.29-2.09-1.77-4-2.71-6.01,1.35-.66,2.41-1.59,2.88-1.34,8.66,4.59,16.98,7.55,23.8-3.04,1.32-2.05,3.69-2.49,6.09-1.98v-3.33h-82.2c-1.16,2.05-2.39,4.08-4.35,5.64-2.58,2.06.36,3.91,1.5,5.66ZM1911.52,235.27c-.43-3.19.85-5.3,4.06-5.64,2.46-.27,4.09,1.3,5.18,3.44-.5,3.19-2.71,4.48-5.53,4.94-2.02.31-3.41-.52-3.71-2.73ZM1993.04,244.8c-.14,1.42-2.22,2.64-3.43,3.95l-.39.48c-2.59,3.2-5.52,2.56-8.38.57-1.48-1.04-2.61-2.59-4.05-3.7-2.1-1.6-5.01-2.26-5.77-5.39,3.51-2.18,7.07-1.96,10.15.52,2.58,2.08,4.68,4.06,8.18,1.77,1.66-1.09,3.91-.41,3.69,1.8Z"></path><path class="cls-1" d="M1724,237.23c.09,0,.19-.02.29-.02-.01.07-.01.12-.02.19,3.89-1.96,6.81,6,11.4,1.18,1.29-1.36,2.71,1.3,2.64,3.17-.11,3.12-.41,6.23-.78,11.56-4.64-6.78-14.98-5.59-13.27-15.91-.1.05-.2.08-.31.15.03-.12.03-.21.05-.32-2.71.16-5.42.33-8.13.49-6.66,2.58-10.19,3.86-12.52,3.04.9,1.19,1.79,2.41,2.67,3.63.37.41.62.89.94,1.34,1.46-1.56,3.12-2.79,5.77-2.39,1.16,1.61,2.32,3.23,3.48,4.84-2.17,4.01-4.4,3.32-6.65,2.09.82,1.74,1.68,3.46,2.73,5.07h31.87c-.81-.19-1.61-.61-2.43-1.43-1.45-1.47-1.18-3.39-.75-5.2.85-3.59,3.87-3.8,6.5-3.46,4.78.61,8.05-.3,9.05-5.73,1.09-5.97,10.89-6.18,9.33-14.07h-48.5c-1.09,1.36-2.21,2.74-3.25,4.03,2.44,4.43,11.43-.67,9.89,7.74Z"></path><path class="cls-1" d="M1686.62,233.41c6.08-1.72,10.11.25,13.42,3.52-.75-1.71-1.5-3.98-2.43-6.95.13-1.48.75-2.73,1.86-3.72,2.5.31,4.69-.03,6.68-.79h-74.84c-1.29,1.27-3.27,2.02-5.55,2.51-.2-.83-.5-1.67-.8-2.51h-1.39v29.89h45.76c1.85-7.41,7.8-12.16,11.97-18.02,1.12-2.21,2.99-3.41,5.33-3.92Z"></path><path class="cls-1" d="M1799.5,225.46h-9.93c-4.07.78-7.52,3.03-9.84,8.48-.8,1.89-3.11,1.45-4.92.95-4.94-1.39-8.87.04-11.86,4.24.66,4.69,6.25.7,7.32,4.47-.37.59-.73,1.79-1.19,1.83-7.19.66-12,6.53-18.59,8.62-1.43.45-2.77,1.04-4.08,1.3h105.46v-29.89h-22.08c.21,1.28.32,2.66.43,4.06-.34,3.33.16,7.9-5.9,8.07-4.61.14-9.25-5.46-9.21-11.2,0-.36.08-.62.12-.93h-10.68c.14.19.29.35.42.55-1.84-.15-3.68-.37-5.48-.55Z"></path><path class="cls-1" d="M1696.57,245.92c-2.47-4.99-4.36-6.32-9.11-3.47-5,3-10.56,5.16-12.5,11.62-.15.51-.4.91-.67,1.28h26.41c-1.77-2.89-2.69-6.53-4.13-9.43Z"></path><path class="cls-1" d="M1386.28,239.84c-.24,1.52,1.62,3.21.22,4.71-7.05-3.92-14.95-.73-24.3-5.47,4.95,7.79,10.54,11.79,15.26,16.27h78.28c-6-2.22-12.08-4.32-15.12-10.87,8.32-11.28,21.18-7.07,32.08-9.43,2.79-.6,5.05,1.7,5.64,5.76-2.39,2.87-6.32,2.73-9.47,2.21-6.66-1.12-7.5,3.41-8.79,7.87-.32,1.97-1.01,3.66-2.89,4.45h11.13c-.13-3.94,2.07-5.18,3.96-6.57,1.15-.84,2.62-.94,3.63.09,1.87,1.88.14,3.38-1.11,4.35-1.04.8-2.26,1.46-3.57,2.13h24.6c1.23-.55,2.4-1.5,3.39-3.39-4.01-.65-7.54-1.23-11.92-1.94,6.34-9.55,12.51.53,18.9-2.27-.71,2.66-.99,5.46-1.5,7.6h16c-1.44-3.13-3.25-6.19-6.26-8.78,6.98.79,8.57,5.61,12.47,6.09,2.98.37,5.29.95,5.55,2.68h15.75c.02-.61.04-1.21-.06-1.88-.41-2.6-2.64-3.45-4.48-4.67-5.36-2.46-5.81-7.35-6.39-12.67,5.18.36,10.6-2.69,13.32,4.84,1.97,5.45,7.44-.71,10.7,2.02,4.59.94,4.68,4.66,4.99,8.25.45,1.46.66,2.86.2,4.12h15.95v-29.89h-168.26c.1.23.2.45.29.69.21,3.17.67,6.34.56,9.49-.1,2.69-2,3.94-4.63,3.66-2.56-.28-5.85.2-6-3.75-.13-3.36-.11-6.72-.07-10.09h-23.84c.55.45,1.13.99,1.75,1.66,4.13,4.5,4.85,7.65,4.05,12.71ZM1398.68,248.88c.18,1.95-1,3.81-3.21,3.37-2.22-.44-2.71-2.5-1.55-4.25,1.49-2.24.64-4.79.02-7.5,6,1.62,4.48,5.48,4.75,8.39Z"></path><path class="cls-1" d="M1354.14,239.65v14.24c.07.08.12.18.2.26.41.41.67.81.86,1.2h10.9c-.71-1.1-1.39-2.35-2.02-3.94-1.7-4.28-4.05-11.04-9.93-11.77Z"></path><path class="cls-1" d="M1369.97,226.24c.54-.26,1.05-.52,1.54-.78h-7.61c.26.14.52.23.78.39,1.41.83,3.87,1.06,5.29.39Z"></path><path class="cls-1" d="M1313.01,238.1v-12.64h-22.01c-.08,2.49-.86,4.66-1.71,5.41-5.58,4.95-.62,7.42,1.65,10.66-3.37.73-5.3-.86-7.07-2.08-10.14-7.02-19.1-6.85-29.01,1.05-2.72,2.16-4.79.48-5.05-1.52-.38-2.89-2.81-7.13.93-8.81,2.26-1.02,3.35-2.83,4.21-4.72h-170.26v29.89h79.04c.92-3.38,3.1-6.15,6.19-8.48,4.94-3.73,10.81-3.85,15.03.51,2.53,2.61,5.2,5.2,7.58,7.97h41.6c-4.65-1.69-6.7-4.82-3.59-10.22,4.21-7.3,7.51-8.17,15.11-4.53-4.38,3.48-10.32,5.74-9.66,12.96,3.83.57,8.2-4.51,12.49,1.78h16.25c.38-.36.89-.63,1.61-.75.95-.16,1.71.16,2.27.75h9.75c-.93-.73-1.12-1.99-.95-3.32.16-1.1.2-2.87,2.14-2.12,1.69.66,3,1.82,2.88,4.07-.07.6-.32,1.05-.65,1.38h8.84c6.36-6.07,14.45-9.43,20.46-15.11.7-.66,1.28-1.43,1.93-2.14Z"></path><path class="cls-1" d="M976.82,242.18c1.55,1.19,2.66,2.65,1.93,4.69-.7,1.97-2.82,3.26-4.26,2.32-4.95-3.22-8.7-2.61-13.04,1.48-1.92,1.82-4.36-2.17-7.09-2.27.03.1.07.21.09.31h0s0,0,0,0c-.13,0-.25.01-.39,0-.31,3.09-1.46,5.19-3.14,6.62h92.66v-26.6c-5.47,5.39-8.43,4.33-14.75-3.29h-12.96c-.43,2.91-2.71,4.36-4.95,5.86-.96-.6-1.57-.78-1.61-1.05-.29-1.86.21-3.33,1.11-4.81h-38.7c-2.4,6.27-1.16,11.89,5.09,16.71ZM993.91,226.74c1.75.32,3.31,1.27,3.57,3.16.21,1.53-1.03,2.2-2.41,2.07-1.8-.18-3.23-.98-3.53-3.04.12-1.46.79-2.49,2.36-2.19Z"></path><path class="cls-1" d="M833.8,225.46h-18.52v29.89h46.9c.19-2.77-.35-5.6-2.11-8.59-2.07-3.52.43-7.06,2.03-11.11,3.38,1.55,5.34,5.79,10.13,5.04,4.98-.79,4.46-5.22,6.77-7.66.81-.86,2.5-.86,3.8-1.24,3.55,1.82,4.13,4.77,3.14,8.34-2.57,1.87-5.06,3.87-7.75,5.55-2.57,1.61-5.36,2.88-8.51,4.54,6.19,7.26,10.69-.51,15.71-.82,3-.19,3.85-6.69,7.48-2.75,2.72,2.96-.12,6.02-1.66,8.71h39.2c7.93-2.54,15.14-6.88,23.65-6.62.02-.13.05-.23.06-.36.08,0,.16.03.24.04-.43-1.77-1.52-4.18-.85-4.89,4.84-5.21,7.03-11.92,10.19-18.05h-127.07c-.82.47-1.77.49-2.83,0ZM845.04,244.06c-1.19,1.5-2.89,2.06-4.71,1.82-1.24-.16-3.35-.68-3.43-1.29-.37-2.59,1.91-2.14,3.44-2.29,1.79-.17,3.52.11,4.7,1.75ZM842.51,234.3c-2.07.69-4.23.37-6.25,2.09-8.41,7.15-8.51,7.03-18.18-1.22,8.06-1.13,14.75-7,23.26-6.1,1.43.15,2.71.4,2.97,1.98.23,1.43-.38,2.78-1.8,3.25ZM888.22,228.66c1.9-.59,3.65-3.16,5.78-.78,1.71,1.93,1.58,4.17-.34,5.9-1.62,1.47-3.52,2.64-5.3,3.94-.04-3.02-.09-6.04-.14-9.06ZM945.99,229.02c-.62,7.5-5.9,16.08-10.2,15.18-9.68-2.03-10.1,8.62-16.78,9.09-4.98.34-8.83-3.98-13.72-5.29-1.79.25-3.68.36-5.83.12,2.15-.7,4.05-.59,5.83-.12,9.59-1.34,14.65-9,20.14-16.1,2.63-3.39,6.83-4.23,11.44-5.45-.02,4.73-6.57,6.68-4.73,11.68,6.98.5,6.85-8.62,13.84-9.11ZM912.77,227.23c1.13,5.87-4.37,6.77-7.47,9.66-.21-4.79.43-9.13,5.32-10.71.57-.19,2.06.55,2.15,1.05Z"></path><path class="cls-1" d="M551.51,237.43c-6.69,7.8-6.8,7.73-.03,14.74.88.91,2.66,1.65,1.1,3.18h29.95c3.48-3.12,7.91-5.27,13.45-6.3,5.18-.3,7.45,1.67,6.32,6.3h144.45c-1.7-1.29-3.48-2.51-3.8-4.86.18-1.85.63-3.59,1.93-5,3.05.34,5.64-9.55,9.38-.05,1.68,4.25,7.74.88,11.93,3.99-.32,1.87-1.46,3.86-2.48,5.91h10.44v-29.89h-33.65c-.71.43-1.68.54-2.61.61-.79.05-1.76-.07-2.25-.61h-182.52c3.39,4.61,2.85,6.75-1.62,11.97ZM590.77,243.59c-1.71-2.08-4-4.08-2.64-7.16.82-1.87,2.84-1.84,4.66-1.94,3.81-.19,6.12,1.16,5.73,5.44-4.02-.12-5.87.99-2.74,4.93-1.77.03-3.64.38-5.01-1.27ZM627.93,247.34c9.75-5.23,10.12-5.34,14.52-4.3,2.58,2.01,7.94,2.07,5.35,7.74-6.9.53-13.76.82-19.87-3.44ZM736.57,253.88c-.89.13-1.77.11-2.64-.05-1.04-2.91-2.21-5.77-3.03-8.74-.3-1.09.22-2.43.42-3.9,8.11,1.93,5.38,7.84,5.25,12.7ZM620.98,240.11c0,5.84-4.36,6.07-8.63,5.98-1.78-.04-3.59-.36-5.37-.55-2.27-1.34-1.29-4.07-2.46-5.87.64-3.29,3.59-4.11,5.98-4.84,5.24-1.59,10.48,1.12,10.47,5.29Z"></path><path class="cls-1" d="M295.57,240.21c2.16-.99,6.25,2.28,9.79,4.35.45.09.91.3,1.4.76,2.45.48,5.31,2.43,3.47,4.3-1.55,1.57-2.43,3.64-3.29,5.73h49.17c.02-.41.08-.82.09-1.23.32-11.03.25-11.04,13.19-13.61.36,5.02.71,9.97,1.05,14.84h134.28v-2.76c-4.06,1.49-8.82-.1-13.86-.34,7.41-7.57,9.18-9.33,13.86-7.34v-9.84c-3.13,1.7-6.17,1.19-8.56-3.89-2.25-4.77-6.62-3.37-10.52-2.86q-7.27,9.3-13.54-.91c2.23-3.81,6.07,1.55,8.44-1.51.02-.17.09-.28.11-.44h-24.39c.96,2.02,1.84,4.07,2.45,6.22,1.22,4.34,5.29,4.5,8.94,4.89,2.48.26,4.81,1.04,3.92,4.05-.83,2.74-3.78,5.77-6.04,4.02-7.24-5.62-15.28-4.03-23.28-4.43-6.71-.33-6.68-7.88-11.55-11.43,3.77-3.43,7.73-1.6,10.82-2.96.19-.12.31-.25.44-.36h-95.96c3.96,3.25,5.73,6.62,5.75,12.04-4.91-2.85-7.54-6.11-9.65-12.04h-13.09c-.5,2.93-.06,5.9-.67,8.78.08-.01.16-.02.23-.04l-.27.22s.27-.22.27-.21c-.02.09-.04.19-.05.29,1.76.48,3.02,1.5,3.09,3.48.08,2.62.51,5.53-2.69,6.75-.62.24-1.84-.2-2.31-.74-2.12-2.45,1.22-3.77,1.35-5.81.08-1.24.35-2.46.56-3.68-.08-.02-.14-.05-.21-.07.02-.06.02-.12.03-.18-2.2.36-4.73.66-5.09-2.24-.26-2.15-.23-4.34-.11-6.54h-46.73v29.89h1.2c5.38-5.82,10.87-11.89,17.95-15.14ZM480.88,242.5c.92-3.51,4.18-2.77,6.73-2.82,2.05-.04,3.21,1.36,3.55,3.4-.97,3.2-3.65,4.14-6.37,3.9-2.18-.2-4.67-1.58-3.91-4.48ZM386.25,233.44c-.71-1.55.93-3.45,2.94-3.82,2.84-.51,4.8,1.77,4.66,3.71-.31,3.98-1.85,7.84-6.46,13.97.54-6.47.54-10.22-1.14-13.86Z"></path><path class="cls-1" d="M303.13,245.67c-6.24-.68-11.19.76-15.07,6.55-.66.99-1.37,2.07-2.14,3.13h12.77c2.51-2.48,4.16-5.66,4.44-9.68Z"></path><path class="cls-1" d="M119.33,255.35h104.79c.48-1.09,1.17-2.11,2.66-2.7.87.91,1.53,1.81,1.99,2.7h6.52v-29.89h-20.07c0,.58-.03,1.09-.23,1.49-1.6,3.09-2.97,6.77-7.46,6.33-.71-.07-1.7-1.08-1.89-1.84-.85-3.29,1.04-4.68,3.04-5.98h-38.7c-.02.5-.02,1.05-.08,1.74-1.25-.75-2.17-1.27-2.97-1.74h-42.18c3.7,1.78,4.43,5.77,5.96,9.04.17,2.94-1.64,4.35-3.82,4.96-2.39.66-2.84-1.31-3.06-3.2-.06-.45-.29-.87-.33-1.32-.34-3.26-5.36-5.53-2.04-9.48h-21.27c-.75,1.73-3.4,2.62-6.98,3.48-1.67.4-3.1,1.79-4.64,2.71-2.82,4.64-5.82,3.81-8.93.31.2-1.8.37-3.59.58-5.39.04-.36.09-.74.14-1.11H6.99v29.89h104.64c3.77-2.33,5.68-2.48,7.69,0ZM216.59,249.39c-1.1.2-2.07.71-2.67.42-2.91-1.37-5.11-3.46-5.98-7.76,6.8-.92,8.91,1.9,8.66,7.34ZM223.88,236.52c-.87-3.55-.9-7.12,2.01-10.36,5.23,2.14,3.4,6.28,4.96,8.96,1.31,2.23,1.36,4.7-1.86,5.12-2.46.32-4.51-1.23-5.11-3.71ZM62.88,225.6c2.01,10.12-7.55,12.57-11.96,18.24q2.34-14.27,11.96-18.24ZM159.89,248.07c-.1-3.74,3.5-3.55,4.57-5.04,3.14.13,4.88,1.48,4.47,3.37-.67,3.06-3.55,3.81-6.35,4.08-1.7.16-2.65-.97-2.69-2.41Z"></path></svg> 